<?xml version="1.0" standalone="no"?>
<!DOCTYPE svg PUBLIC "-//W3C//DTD SVG 20010904//EN"
 "http://www.w3.org/TR/2001/REC-SVG-20010904/DTD/svg10.dtd">
<svg version="1.0" xmlns="http://www.w3.org/2000/svg"
 width="700.000000pt" height="700.000000pt" viewBox="0 0 700.000000 700.000000"
 preserveAspectRatio="xMidYMid meet">
<metadata>
Created by potrace 1.14, written by Peter Selinger 2001-2017
</metadata>
<g transform="translate(0.000000,700.000000) scale(0.100000,-0.100000)"
fill="#000000" stroke="none">
<path d="M3446 6905 c-9 -13 -24 -39 -35 -57 -96 -168 -165 -285 -181 -308
-11 -16 -20 -31 -20 -34 0 -3 -14 -29 -31 -58 -18 -29 -40 -68 -50 -85 -11
-18 -29 -50 -41 -70 -11 -21 -34 -63 -50 -93 -16 -30 -33 -59 -37 -65 -5 -5
-22 -35 -38 -65 -49 -90 -75 -134 -84 -146 -5 -6 -6 -14 -2 -17 10 -11 80 -8
110 4 112 45 276 129 333 169 15 11 33 20 38 20 6 0 12 4 14 8 2 5 32 28 68
52 107 72 141 100 228 188 88 89 96 109 62 152 -11 14 -20 28 -20 31 0 4 -18
37 -41 74 -22 37 -49 82 -59 99 -9 17 -28 49 -41 72 -13 22 -37 64 -54 92 -36
62 -48 69 -69 37z"/>
<path d="M3729 6193 c-280 -290 -490 -452 -714 -553 -38 -18 -78 -36 -87 -41
-10 -5 -27 -9 -37 -9 -11 0 -22 -4 -25 -9 -6 -9 -30 -14 -133 -29 -29 -5 -54
-10 -56 -12 -1 -3 -59 -117 -127 -255 -69 -137 -128 -251 -132 -253 -5 -2 -8
-9 -8 -16 0 -18 -24 -66 -32 -66 -5 0 -8 -7 -8 -15 0 -15 -19 -54 -31 -65 -3
-3 -13 -23 -23 -45 -20 -44 -19 -42 -105 -210 -34 -66 -59 -124 -57 -131 2 -6
44 -31 93 -56 351 -181 766 -216 1213 -103 349 87 741 285 1060 534 25 19 47
37 49 38 2 2 -1 14 -7 28 -12 25 -25 56 -45 105 -5 14 -14 35 -18 48 -5 12
-14 34 -20 50 -7 15 -15 36 -19 47 -13 36 -79 168 -116 235 -20 36 -55 99 -77
140 -22 41 -43 80 -47 85 -4 6 -27 46 -50 90 -51 94 -61 111 -141 253 -12 20
-35 62 -52 92 -16 30 -33 60 -38 65 -4 6 -21 35 -37 65 -37 72 -55 100 -63
100 -4 0 -53 -48 -110 -107z"/>
<path d="M4663 4730 c-18 -11 -54 -41 -80 -67 -26 -27 -73 -68 -103 -93 -30
-25 -57 -47 -60 -50 -9 -10 -215 -147 -260 -174 -69 -39 -288 -145 -345 -166
-11 -4 -31 -12 -45 -18 -39 -17 -170 -59 -257 -82 -83 -22 -133 -32 -282 -55
-110 -17 -390 -20 -477 -5 -137 24 -194 38 -299 72 -68 22 -263 115 -283 135
-7 7 -17 13 -21 13 -4 0 -21 11 -37 25 -16 14 -35 25 -42 25 -25 0 -79 -44
-91 -74 -13 -30 -75 -164 -112 -239 -11 -22 -19 -49 -19 -62 0 -31 35 -55 82
-55 42 0 164 -30 243 -59 131 -49 225 -87 283 -113 34 -15 65 -28 67 -28 2 0
28 -11 57 -24 56 -25 236 -101 378 -159 925 -378 1625 -380 2171 -6 99 68 126
100 111 133 -30 65 -55 123 -62 141 -4 11 -17 41 -29 68 -11 26 -30 66 -40 90
-35 77 -102 222 -122 260 -10 22 -19 45 -19 53 0 8 -3 14 -7 14 -9 0 -33 49
-33 67 0 7 -3 13 -8 13 -4 0 -13 15 -20 33 -26 63 -117 242 -124 245 -5 2 -8
12 -8 22 0 10 -4 20 -8 22 -4 2 -20 29 -36 61 -15 31 -28 57 -29 56 -1 0 -16
-9 -34 -19z"/>
<path d="M1725 3615 c-19 -20 -35 -42 -35 -50 0 -9 -4 -24 -10 -35 -5 -11 -14
-29 -20 -40 -5 -11 -10 -24 -10 -30 0 -6 -9 -32 -21 -58 -12 -26 -25 -56 -30
-67 -7 -17 -33 -95 -119 -361 -6 -17 -10 -47 -10 -67 0 -45 21 -53 95 -36 67
15 334 26 448 17 169 -12 360 -43 582 -96 22 -6 60 -15 85 -20 25 -6 63 -16
85 -22 22 -6 51 -14 65 -16 14 -3 34 -9 45 -13 42 -17 92 -31 108 -31 10 0 25
-4 35 -9 9 -5 37 -15 62 -21 25 -7 54 -16 65 -20 11 -4 54 -18 95 -30 41 -12
83 -26 92 -31 10 -5 27 -9 37 -9 11 0 23 -4 26 -10 3 -5 17 -10 30 -10 13 0
27 -4 30 -10 3 -5 17 -10 30 -10 13 0 27 -4 30 -10 3 -5 17 -10 30 -10 13 0
27 -4 30 -10 3 -5 17 -10 30 -10 13 0 27 -4 30 -10 3 -5 16 -10 29 -10 12 0
26 -4 32 -8 5 -5 43 -19 84 -32 41 -13 79 -27 84 -32 6 -4 20 -8 32 -8 13 0
26 -4 29 -10 3 -5 17 -10 30 -10 13 0 26 -4 29 -8 3 -4 28 -14 56 -22 28 -8
53 -18 56 -22 3 -4 14 -8 25 -8 19 0 28 -4 76 -28 13 -7 31 -12 41 -12 10 0
22 -4 28 -8 5 -5 43 -19 84 -32 41 -13 79 -27 84 -32 6 -4 20 -8 32 -8 13 0
26 -4 29 -10 3 -5 15 -10 26 -10 10 0 27 -4 37 -9 17 -9 230 -78 312 -101 25
-7 54 -16 65 -20 11 -5 31 -11 45 -14 14 -2 43 -10 65 -16 172 -49 432 -76
482 -49 l25 13 -6 196 c-3 107 -10 231 -15 275 -20 168 -58 374 -101 555 -5
25 -13 60 -16 78 -8 39 -18 40 -75 4 -275 -172 -671 -262 -1026 -233 -379 31
-739 134 -1299 372 -54 23 -123 52 -152 65 -29 13 -55 24 -57 24 -2 0 -34 14
-70 30 -36 17 -68 30 -70 30 -2 0 -34 14 -70 30 -36 17 -69 30 -73 30 -5 0
-27 9 -50 20 -22 11 -47 20 -55 20 -7 0 -17 4 -23 9 -13 13 -223 86 -344 121
-128 36 -194 50 -245 50 -37 0 -50 -5 -80 -35z"/>
<path d="M2139 2436 c-3 -3 -64 -11 -135 -16 -180 -15 -253 -25 -454 -61 -30
-5 -77 -12 -103 -16 -76 -9 -82 -24 -73 -196 8 -163 21 -298 36 -377 5 -30 13
-74 16 -98 4 -23 11 -45 15 -48 5 -3 9 -16 9 -30 0 -13 4 -32 9 -42 5 -9 14
-35 20 -57 7 -22 17 -50 22 -62 5 -13 13 -33 18 -45 5 -13 31 -68 58 -123 49
-100 49 -100 83 -97 19 1 37 7 38 12 2 6 12 10 22 10 10 0 20 3 22 8 6 13 148
79 298 137 52 20 104 41 115 45 11 5 52 19 90 31 39 12 78 25 87 30 10 5 29 9
42 9 14 0 28 5 31 10 3 6 19 10 35 10 16 0 32 5 35 10 3 6 21 10 40 10 19 0
36 4 39 9 3 5 23 11 43 14 21 3 63 11 93 17 30 6 75 13 100 16 25 3 54 9 65
14 11 5 47 11 80 14 33 3 119 10 190 18 168 16 503 16 675 -1 74 -7 160 -15
190 -17 30 -3 64 -9 75 -14 11 -5 40 -11 65 -14 25 -2 66 -9 93 -15 26 -6 66
-15 90 -20 58 -13 115 -28 160 -40 20 -6 52 -15 70 -20 54 -15 131 -41 149
-51 10 -6 25 -10 33 -10 8 0 23 -4 33 -9 9 -5 49 -21 87 -36 80 -30 114 -45
205 -87 132 -61 156 -72 180 -89 55 -36 94 -27 123 29 7 15 23 44 35 65 12 21
22 44 22 52 0 8 5 15 10 15 6 0 10 7 10 15 0 8 4 24 10 35 6 11 14 29 20 40 6
11 10 29 10 39 0 11 5 23 10 26 6 3 10 26 10 51 0 40 -2 44 -25 44 -14 0 -33
4 -43 9 -9 5 -37 15 -62 21 -25 7 -54 16 -65 20 -11 5 -38 14 -60 21 -22 7
-44 17 -49 21 -6 4 -20 8 -33 8 -13 0 -23 4 -23 8 0 5 -22 15 -50 22 -27 7
-50 17 -50 22 0 4 -7 8 -15 8 -8 0 -25 5 -38 12 -47 24 -57 28 -72 28 -8 0
-15 5 -15 10 0 6 -6 10 -13 10 -12 0 -80 29 -119 50 -10 6 -25 10 -33 10 -8 0
-15 5 -15 10 0 6 -7 10 -15 10 -8 0 -23 4 -33 10 -23 13 -133 62 -257 115 -19
8 -51 22 -70 30 -113 48 -127 54 -177 74 -13 4 -34 13 -48 19 -14 5 -41 15
-60 22 -19 7 -44 16 -55 21 -26 11 -248 83 -305 99 -25 6 -55 16 -68 21 -13 5
-34 9 -47 9 -13 0 -27 5 -30 10 -3 6 -21 10 -40 10 -19 0 -36 4 -39 9 -3 5
-23 11 -43 14 -21 3 -65 11 -98 17 -130 25 -163 30 -235 41 -41 5 -113 15
-160 20 -93 11 -782 24 -791 15z"/>
<path d="M3590 1319 c-154 -8 -301 -26 -475 -58 -106 -19 -226 -45 -275 -60
-19 -5 -46 -12 -60 -16 -59 -15 -106 -28 -125 -35 -11 -4 -51 -17 -90 -29 -38
-12 -79 -26 -90 -31 -11 -4 -58 -23 -105 -41 -164 -63 -450 -219 -450 -246 0
-11 139 -141 183 -172 12 -8 24 -18 27 -21 10 -13 224 -153 284 -186 58 -32
267 -136 311 -154 11 -4 36 -15 55 -23 150 -66 330 -127 373 -127 24 0 65 14
116 40 43 22 81 40 85 40 3 0 28 9 54 21 59 26 78 34 122 49 19 7 44 15 55 20
25 9 136 43 195 59 115 32 182 46 375 80 33 6 146 14 250 17 105 4 195 9 202
13 6 3 42 35 80 71 37 36 124 113 193 170 177 148 332 301 319 316 -9 11 -64
39 -151 78 -21 9 -53 23 -70 30 -36 16 -233 83 -288 98 -330 89 -685 121
-1100 97z"/>
</g>
</svg>
