<?xml version="1.0" encoding="UTF-8"?>
<!DOCTYPE svg PUBLIC "-//W3C//DTD SVG 1.1//EN" "http://www.w3.org/Graphics/SVG/1.1/DTD/svg11.dtd">
<svg xmlns="http://www.w3.org/2000/svg" version="1.1" width="500px" height="500px" style="shape-rendering:geometricPrecision; text-rendering:geometricPrecision; image-rendering:optimizeQuality; fill-rule:evenodd; clip-rule:evenodd" xmlns:xlink="http://www.w3.org/1999/xlink">
<g><path style="opacity:1" fill="#0c7bba" d="M 139.5,147.5 C 141.587,148.585 142.92,150.251 143.5,152.5C 145.931,161.462 145.931,170.462 143.5,179.5C 142.448,179.351 141.448,179.517 140.5,180C 138.594,182.061 136.927,184.228 135.5,186.5C 131.008,186.269 126.675,186.936 122.5,188.5C 120.027,188.299 117.694,187.632 115.5,186.5C 120.189,184.282 125.189,183.116 130.5,183C 132.904,182.492 133.571,181.325 132.5,179.5C 131.186,180.313 130.019,181.313 129,182.5C 123.201,181.407 117.534,182.074 112,184.5C 110.374,183.711 108.874,182.711 107.5,181.5C 105.816,177.284 104.316,172.95 103,168.5C 102.586,168.957 102.086,169.291 101.5,169.5C 101.167,168.167 100.833,166.833 100.5,165.5C 101.17,161.49 101.837,157.49 102.5,153.5C 104.912,153.306 105.912,151.973 105.5,149.5C 108.089,148.581 110.089,146.914 111.5,144.5C 115.094,143.543 118.76,142.876 122.5,142.5C 128.411,143.641 134.078,145.308 139.5,147.5 Z"/></g>
<g><path style="opacity:1" fill="#5e9cc2" d="M 139.5,147.5 C 134.078,145.308 128.411,143.641 122.5,142.5C 118.76,142.876 115.094,143.543 111.5,144.5C 112.842,143.207 114.509,142.374 116.5,142C 125.211,140.073 132.878,141.906 139.5,147.5 Z"/></g>
<g><path style="opacity:0.984" fill="#74a8c7" d="M 111.5,144.5 C 110.089,146.914 108.089,148.581 105.5,149.5C 106.911,147.086 108.911,145.419 111.5,144.5 Z"/></g>
<g><path style="opacity:1" fill="#65a1c3" d="M 105.5,149.5 C 105.912,151.973 104.912,153.306 102.5,153.5C 102.738,151.596 103.738,150.262 105.5,149.5 Z"/></g>
<g><path style="opacity:1" fill="#5998c1" d="M 143.5,152.5 C 144.79,153.058 145.623,154.058 146,155.5C 149.202,163.945 148.369,171.945 143.5,179.5C 145.931,170.462 145.931,161.462 143.5,152.5 Z"/></g>
<g><path style="opacity:1" fill="#418abc" d="M 102.5,153.5 C 101.837,157.49 101.17,161.49 100.5,165.5C 100.833,166.833 101.167,168.167 101.5,169.5C 102.086,169.291 102.586,168.957 103,168.5C 104.316,172.95 105.816,177.284 107.5,181.5C 108.874,182.711 110.374,183.711 112,184.5C 117.534,182.074 123.201,181.407 129,182.5C 130.019,181.313 131.186,180.313 132.5,179.5C 133.571,181.325 132.904,182.492 130.5,183C 125.189,183.116 120.189,184.282 115.5,186.5C 117.694,187.632 120.027,188.299 122.5,188.5C 126.675,186.936 131.008,186.269 135.5,186.5C 119.606,193.648 107.772,189.314 100,173.5C 97.6956,166.347 98.5289,159.68 102.5,153.5 Z"/></g>
<g><path style="opacity:1" fill="#5b98ba" d="M 143.5,179.5 C 141.431,182.573 138.764,184.906 135.5,186.5C 136.927,184.228 138.594,182.061 140.5,180C 141.448,179.517 142.448,179.351 143.5,179.5 Z"/></g>
<g><path style="opacity:1" fill="#63a1c1" d="M 40.5,197.5 C 37.1122,198.689 33.9456,200.356 31,202.5C 30.3292,201.748 29.4959,201.414 28.5,201.5C 32.0845,199.194 36.0845,197.861 40.5,197.5 Z"/></g>
<g><path style="opacity:1" fill="#5295bf" d="M 84.5,203.5 C 80.8371,203.048 77.1704,202.548 73.5,202C 73.8333,201.667 74.1667,201.333 74.5,201C 63.4191,197.827 52.0858,196.66 40.5,197.5C 55.9524,193.472 70.6191,195.472 84.5,203.5 Z"/></g>
<g><path style="opacity:1" fill="#3a87bb" d="M 256.5,215.5 C 253.849,213.84 251.849,211.507 250.5,208.5C 249.201,209.09 248.368,210.09 248,211.5C 246.294,210.692 245.461,209.359 245.5,207.5C 246.675,207.719 247.675,207.386 248.5,206.5C 247.68,204.889 246.346,204.222 244.5,204.5C 244.5,203.5 244.5,202.5 244.5,201.5C 239.555,200.874 235.055,201.874 231,204.5C 228.58,203.233 226.08,202.233 223.5,201.5C 220.201,202.21 216.867,202.543 213.5,202.5C 227.394,192.172 240.227,193.505 252,206.5C 254.038,209.243 255.538,212.243 256.5,215.5 Z"/></g>
<g><path style="opacity:1" fill="#3586bb" d="M 344.5,199.5 C 344.158,200.338 343.492,200.672 342.5,200.5C 334.53,200.828 326.863,201.161 319.5,201.5C 319.5,202.5 319.5,203.5 319.5,204.5C 317.801,204.66 316.134,204.494 314.5,204C 316.208,202.49 317.874,200.99 319.5,199.5C 318.5,199.167 317.5,198.833 316.5,198.5C 314.465,199.204 312.465,199.871 310.5,200.5C 310.749,203.575 309.415,204.242 306.5,202.5C 304.223,203.478 301.89,204.145 299.5,204.5C 313.535,194.887 328.535,193.22 344.5,199.5 Z"/></g>
<g><path style="opacity:1" fill="#3680af" d="M 434.5,199.5 C 435.468,201.607 435.802,203.941 435.5,206.5C 434.992,208.233 434.159,208.566 433,207.5C 432.666,205.153 432.833,202.819 433.5,200.5C 420.833,200.5 408.167,200.5 395.5,200.5C 395.819,202.75 395.319,204.75 394,206.5C 393.722,205.584 393.222,204.918 392.5,204.5C 392.5,202.833 392.5,201.167 392.5,199.5C 406.5,199.5 420.5,199.5 434.5,199.5 Z"/></g>
<g><path style="opacity:1" fill="#5091bd" d="M 483.5,212.5 C 482.167,212.5 480.833,212.5 479.5,212.5C 479.64,209.267 478.473,206.601 476,204.5C 474.272,203.76 472.272,203.76 470,204.5C 469.067,200.605 466.567,198.438 462.5,198C 459.446,197.179 456.446,197.345 453.5,198.5C 451.118,200.071 448.451,200.904 445.5,201C 444.257,202.154 443.257,203.488 442.5,205C 440.866,205.494 439.199,205.66 437.5,205.5C 448.169,194.166 460.169,192.666 473.5,201C 478.127,203.788 481.461,207.622 483.5,212.5 Z"/></g>
<g><path style="opacity:1" fill="#0a7bbb" d="M 199.5,200.5 C 199.5,201.5 199.5,202.5 199.5,203.5C 198.167,203.5 196.833,203.5 195.5,203.5C 194.371,206.374 193.038,209.207 191.5,212C 191.833,212.833 192.167,213.667 192.5,214.5C 194.481,212.67 196.815,211.504 199.5,211C 198.007,209.844 198.174,209.01 200,208.5C 200.772,208.645 201.439,208.978 202,209.5C 203.081,211.622 203.748,213.622 204,215.5C 204.308,214.692 204.808,214.025 205.5,213.5C 207.173,215.086 209.173,215.753 211.5,215.5C 211.917,218.079 211.25,220.246 209.5,222C 210.337,223.011 210.67,224.178 210.5,225.5C 209.325,225.281 208.325,225.614 207.5,226.5C 209.353,227.76 211.186,227.76 213,226.5C 215.065,227.628 215.732,229.294 215,231.5C 214.029,230.802 212.863,230.802 211.5,231.5C 210.328,231.081 209.328,230.415 208.5,229.5C 208.167,230 207.833,230.5 207.5,231C 209.576,232.244 210.576,234.077 210.5,236.5C 209.5,236.5 208.5,236.5 207.5,236.5C 207.5,237.5 207.5,238.5 207.5,239.5C 206.5,239.5 205.5,239.5 204.5,239.5C 204.5,262.5 204.5,285.5 204.5,308.5C 191.167,308.5 177.833,308.5 164.5,308.5C 164.78,272.486 164.447,236.486 163.5,200.5C 175.5,200.5 187.5,200.5 199.5,200.5 Z"/></g>
<g><path style="opacity:1" fill="#0f7cba" d="M 40.5,197.5 C 52.0858,196.66 63.4191,197.827 74.5,201C 74.1667,201.333 73.8333,201.667 73.5,202C 77.1704,202.548 80.8371,203.048 84.5,203.5C 84.0825,204.222 83.4158,204.722 82.5,205C 83.7932,205.49 85.1266,205.657 86.5,205.5C 86.0725,208.564 85.4058,211.564 84.5,214.5C 83.5041,214.414 82.6708,214.748 82,215.5C 81.7547,217.663 80.7547,219.33 79,220.5C 78.5045,222.473 78.3379,224.473 78.5,226.5C 75.6452,228.281 74.3118,230.948 74.5,234.5C 73.8333,234.833 73.1667,235.167 72.5,235.5C 72.5,233.5 71.5,232.5 69.5,232.5C 68.5,232.167 67.8333,231.5 67.5,230.5C 66.656,228.241 64.9893,227.241 62.5,227.5C 58.4823,226.329 54.4823,226.329 50.5,227.5C 47.6752,231.534 48.3419,234.867 52.5,237.5C 53.344,239.759 55.0107,240.759 57.5,240.5C 60.3311,241.079 62.6644,242.412 64.5,244.5C 64.281,245.675 64.6143,246.675 65.5,247.5C 69.234,247.788 72.0674,249.455 74,252.5C 74.3826,251.944 74.8826,251.611 75.5,251.5C 77.1667,252.5 78.5,253.833 79.5,255.5C 79.2865,257.144 79.6198,258.644 80.5,260C 78.3825,260.26 76.7158,261.26 75.5,263C 77.5269,262.502 79.5269,262.669 81.5,263.5C 82.2132,265.776 82.7132,268.109 83,270.5C 83.414,270.043 83.914,269.709 84.5,269.5C 85.4959,275.463 85.8293,281.463 85.5,287.5C 84.1634,288.315 83.1634,289.482 82.5,291C 81.552,291.483 80.552,291.649 79.5,291.5C 79.5,293.5 79.5,295.5 79.5,297.5C 78.0222,297.762 76.6888,297.429 75.5,296.5C 76.3256,295.549 76.4922,294.549 76,293.5C 74.6667,294.167 73.3333,294.833 72,295.5C 72.9189,298.284 73.4189,301.284 73.5,304.5C 69.0137,306.286 64.347,307.62 59.5,308.5C 57.5794,309.324 56.246,310.657 55.5,312.5C 46.9999,314.016 38.6665,313.683 30.5,311.5C 27.855,309.69 24.855,308.69 21.5,308.5C 20.7659,307.292 20.4326,305.959 20.5,304.5C 17.8333,303.833 15.1667,303.167 12.5,302.5C 12.5,301.5 12.5,300.5 12.5,299.5C 9.71177,299.923 7.71177,298.923 6.5,296.5C 8.04533,295.548 9.71199,295.215 11.5,295.5C 10.1667,291.5 10.1667,287.5 11.5,283.5C 13.5932,282.955 15.5932,282.122 17.5,281C 16.6634,279.989 16.33,278.822 16.5,277.5C 18.1992,277.66 19.8659,277.494 21.5,277C 20.1387,275.416 19.472,273.582 19.5,271.5C 22.2385,270.965 24.0718,271.965 25,274.5C 25.3826,273.944 25.8826,273.611 26.5,273.5C 26.9126,275.89 27.5793,278.223 28.5,280.5C 29.2935,280.069 30.1268,279.735 31,279.5C 34.5818,280.194 38.0818,281.194 41.5,282.5C 43.8409,281.818 46.1743,281.151 48.5,280.5C 48.8016,277.941 48.4682,275.607 47.5,273.5C 47.6567,272.127 47.49,270.793 47,269.5C 43.6958,268.388 40.8625,266.555 38.5,264C 40.6687,263.571 42.6687,264.071 44.5,265.5C 45.6956,265.154 45.6956,264.654 44.5,264C 39.9401,262.679 35.2734,261.846 30.5,261.5C 26.9754,260.241 23.9754,258.241 21.5,255.5C 21.5123,252.858 20.179,251.525 17.5,251.5C 16.3995,250.395 15.7329,249.062 15.5,247.5C 12.569,237.994 11.9024,228.328 13.5,218.5C 18.1993,214.12 22.1993,209.12 25.5,203.5C 25.9731,202.094 26.9731,201.427 28.5,201.5C 29.4959,201.414 30.3292,201.748 31,202.5C 33.9456,200.356 37.1122,198.689 40.5,197.5 Z"/></g>
<g><path style="opacity:1" fill="#0f7cbb" d="M 483.5,212.5 C 483.427,214.027 484.094,215.027 485.5,215.5C 488.662,219.975 490.662,224.975 491.5,230.5C 491.41,233.152 492.076,235.485 493.5,237.5C 496.328,250.247 495.995,262.913 492.5,275.5C 488.052,279.725 486.052,285.058 486.5,291.5C 485.542,291.047 484.708,290.381 484,289.5C 483.798,291.256 483.298,292.922 482.5,294.5C 481.808,293.975 481.308,293.308 481,292.5C 480.667,292.833 480.333,293.167 480,293.5C 480.263,294.951 480.096,296.284 479.5,297.5C 477.561,295.382 475.394,295.049 473,296.5C 472.86,298.256 473.36,299.922 474.5,301.5C 473.253,303.323 472.586,305.323 472.5,307.5C 467.52,308.133 462.687,309.133 458,310.5C 453.536,309.456 449.036,308.456 444.5,307.5C 442.005,306.05 440.005,304.05 438.5,301.5C 439.919,298.776 440.586,296.11 440.5,293.5C 439.675,292.614 438.675,292.281 437.5,292.5C 437.5,294.5 437.5,296.5 437.5,298.5C 435.029,298.233 433.362,299.233 432.5,301.5C 433.474,319.806 433.808,338.139 433.5,356.5C 420.829,356.667 408.162,356.5 395.5,356C 396.624,355.751 397.624,355.251 398.5,354.5C 396.604,353.534 394.604,353.201 392.5,353.5C 392.5,303.833 392.5,254.167 392.5,204.5C 393.222,204.918 393.722,205.584 394,206.5C 395.319,204.75 395.819,202.75 395.5,200.5C 408.167,200.5 420.833,200.5 433.5,200.5C 432.833,202.819 432.666,205.153 433,207.5C 434.159,208.566 434.992,208.233 435.5,206.5C 436.167,206.167 436.833,205.833 437.5,205.5C 439.199,205.66 440.866,205.494 442.5,205C 443.257,203.488 444.257,202.154 445.5,201C 448.451,200.904 451.118,200.071 453.5,198.5C 456.446,197.345 459.446,197.179 462.5,198C 466.567,198.438 469.067,200.605 470,204.5C 472.272,203.76 474.272,203.76 476,204.5C 478.473,206.601 479.64,209.267 479.5,212.5C 480.833,212.5 482.167,212.5 483.5,212.5 Z M 450.5,243.5 C 451.175,254.041 450.175,264.375 447.5,274.5C 446.167,275.167 445.167,276.167 444.5,277.5C 442.097,277.607 440.264,276.607 439,274.5C 437.395,271.352 436.395,268.019 436,264.5C 435.333,257.833 435.333,251.167 436,244.5C 436.613,239.828 438.113,235.494 440.5,231.5C 442.486,230.239 444.319,230.572 446,232.5C 447.822,236.157 449.322,239.824 450.5,243.5 Z"/></g>
<g><path style="opacity:1" fill="#0a7bbb" d="M 199.5,200.5 C 201.167,200.5 202.833,200.5 204.5,200.5C 204.5,204.5 204.5,208.5 204.5,212.5C 205.833,212.5 207.167,212.5 208.5,212.5C 208.517,210.435 208.85,208.435 209.5,206.5C 211.167,205.5 212.5,204.167 213.5,202.5C 216.867,202.543 220.201,202.21 223.5,201.5C 226.08,202.233 228.58,203.233 231,204.5C 235.055,201.874 239.555,200.874 244.5,201.5C 244.5,202.5 244.5,203.5 244.5,204.5C 246.346,204.222 247.68,204.889 248.5,206.5C 247.675,207.386 246.675,207.719 245.5,207.5C 245.461,209.359 246.294,210.692 248,211.5C 248.368,210.09 249.201,209.09 250.5,208.5C 251.849,211.507 253.849,213.84 256.5,215.5C 256.804,218.522 257.304,221.522 258,224.5C 258.5,252.165 258.667,279.831 258.5,307.5C 246.655,307.172 234.988,307.505 223.5,308.5C 221.833,308.5 220.167,308.5 218.5,308.5C 218.5,285.167 218.5,261.833 218.5,238.5C 215.975,237.36 213.308,236.693 210.5,236.5C 210.576,234.077 209.576,232.244 207.5,231C 207.833,230.5 208.167,230 208.5,229.5C 209.328,230.415 210.328,231.081 211.5,231.5C 212.863,230.802 214.029,230.802 215,231.5C 215.732,229.294 215.065,227.628 213,226.5C 211.186,227.76 209.353,227.76 207.5,226.5C 208.325,225.614 209.325,225.281 210.5,225.5C 210.67,224.178 210.337,223.011 209.5,222C 211.25,220.246 211.917,218.079 211.5,215.5C 209.173,215.753 207.173,215.086 205.5,213.5C 204.808,214.025 204.308,214.692 204,215.5C 203.748,213.622 203.081,211.622 202,209.5C 201.439,208.978 200.772,208.645 200,208.5C 198.174,209.01 198.007,209.844 199.5,211C 196.815,211.504 194.481,212.67 192.5,214.5C 192.167,213.667 191.833,212.833 191.5,212C 193.038,209.207 194.371,206.374 195.5,203.5C 196.833,203.5 198.167,203.5 199.5,203.5C 199.5,202.5 199.5,201.5 199.5,200.5 Z"/></g>
<g><path style="opacity:1" fill="#0f7cbb" d="M 342.5,200.5 C 347.918,203.664 353.584,206.664 359.5,209.5C 359.886,211.937 361.053,213.937 363,215.5C 363.49,216.793 363.657,218.127 363.5,219.5C 364.5,219.5 365.5,219.5 366.5,219.5C 366.343,220.873 366.51,222.207 367,223.5C 368.507,224.505 369.673,225.838 370.5,227.5C 371.417,228.127 372.417,228.461 373.5,228.5C 373.5,228.833 373.5,229.167 373.5,229.5C 374.256,233.767 375.589,237.767 377.5,241.5C 380.087,251.34 379.753,261.007 376.5,270.5C 373.426,273.338 372.093,277.005 372.5,281.5C 369.934,284.908 367.101,288.241 364,291.5C 363.586,291.043 363.086,290.709 362.5,290.5C 361.534,292.396 361.201,294.396 361.5,296.5C 360.178,296.67 359.011,296.337 358,295.5C 358.266,298.901 356.766,300.567 353.5,300.5C 353.5,301.833 353.5,303.167 353.5,304.5C 349.948,304.312 347.281,305.645 345.5,308.5C 334.994,310.729 324.327,311.062 313.5,309.5C 312.833,309.5 312.167,309.5 311.5,309.5C 310.365,308.526 309.365,307.359 308.5,306C 305.379,304.392 302.046,303.559 298.5,303.5C 294.544,301.212 291.211,298.212 288.5,294.5C 288.312,288.56 286.146,283.56 282,279.5C 280.86,276.898 280.027,274.231 279.5,271.5C 278.5,271.5 277.5,271.5 276.5,271.5C 272.403,256.181 273.57,241.181 280,226.5C 281.03,224.654 282.196,222.987 283.5,221.5C 284.906,221.027 285.573,220.027 285.5,218.5C 291.54,214.463 296.206,209.797 299.5,204.5C 301.89,204.145 304.223,203.478 306.5,202.5C 309.415,204.242 310.749,203.575 310.5,200.5C 312.465,199.871 314.465,199.204 316.5,198.5C 317.5,198.833 318.5,199.167 319.5,199.5C 317.874,200.99 316.208,202.49 314.5,204C 316.134,204.494 317.801,204.66 319.5,204.5C 319.5,203.5 319.5,202.5 319.5,201.5C 326.863,201.161 334.53,200.828 342.5,200.5 Z M 327.5,230.5 C 329.475,232.137 331.475,233.804 333.5,235.5C 339.029,248.671 338.695,261.671 332.5,274.5C 330.61,276.578 328.276,277.911 325.5,278.5C 323.537,277.18 321.537,275.846 319.5,274.5C 318.403,271.314 317.07,268.314 315.5,265.5C 315.702,263.05 315.369,260.717 314.5,258.5C 313.595,248.48 316.261,239.647 322.5,232C 324.025,230.991 325.692,230.491 327.5,230.5 Z"/></g>
<g><path style="opacity:0.651" fill="#a9cbe3" d="M 213.5,202.5 C 212.5,204.167 211.167,205.5 209.5,206.5C 209.833,204.167 211.167,202.833 213.5,202.5 Z"/></g>
<g><path style="opacity:1" fill="#5596bd" d="M 344.5,199.5 C 350.369,201.596 355.369,204.929 359.5,209.5C 353.584,206.664 347.918,203.664 342.5,200.5C 343.492,200.672 344.158,200.338 344.5,199.5 Z"/></g>
<g><path style="opacity:1" fill="#629cc0" d="M 84.5,203.5 C 86.3936,204.048 88.0603,205.048 89.5,206.5C 88.3087,209.568 86.642,212.235 84.5,214.5C 85.4058,211.564 86.0725,208.564 86.5,205.5C 85.1266,205.657 83.7932,205.49 82.5,205C 83.4158,204.722 84.0825,204.222 84.5,203.5 Z"/></g>
<g><path style="opacity:0.984" fill="#4385af" d="M 205.5,209.5 C 206.301,211.793 206.968,211.46 207.5,208.5C 207.833,207.5 208.5,206.833 209.5,206.5C 208.85,208.435 208.517,210.435 208.5,212.5C 207.167,212.5 205.833,212.5 204.5,212.5C 204.5,208.5 204.5,204.5 204.5,200.5C 202.833,200.5 201.167,200.5 199.5,200.5C 187.5,200.5 175.5,200.5 163.5,200.5C 164.447,236.486 164.78,272.486 164.5,308.5C 163.833,308.5 163.167,308.5 162.5,308.5C 162.5,271.833 162.5,235.167 162.5,198.5C 176.833,198.5 191.167,198.5 205.5,198.5C 205.5,202.167 205.5,205.833 205.5,209.5 Z"/></g>
<g><path style="opacity:0.22" fill="#b5e6f4" d="M 207.5,208.5 C 206.968,211.46 206.301,211.793 205.5,209.5C 206.167,209.167 206.833,208.833 207.5,208.5 Z"/></g>
<g><path style="opacity:1" fill="#5092b7" d="M 25.5,203.5 C 22.1993,209.12 18.1993,214.12 13.5,218.5C 15.3126,211.694 19.3126,206.694 25.5,203.5 Z"/></g>
<g><path style="opacity:0.58" fill="#a4cde1" d="M 293.5,209.5 C 292.833,210.833 291.833,211.833 290.5,212.5C 290.5,210.5 291.5,209.5 293.5,209.5 Z"/></g>
<g><path style="opacity:1" fill="#3c87b5" d="M 299.5,204.5 C 296.206,209.797 291.54,214.463 285.5,218.5C 286.419,215.911 288.086,213.911 290.5,212.5C 291.833,211.833 292.833,210.833 293.5,209.5C 294.911,207.086 296.911,205.419 299.5,204.5 Z"/></g>
<g><path style="opacity:0.459" fill="#92c6df" d="M 483.5,212.5 C 484.906,212.973 485.573,213.973 485.5,215.5C 484.094,215.027 483.427,214.027 483.5,212.5 Z"/></g>
<g><path style="opacity:0.831" fill="#93c2dd" d="M 365.5,215.5 C 366.906,215.973 367.573,216.973 367.5,218.5C 366.094,218.027 365.427,217.027 365.5,215.5 Z"/></g>
<g><path style="opacity:1" fill="#4089b7" d="M 359.5,209.5 C 361.833,211.167 363.833,213.167 365.5,215.5C 365.427,217.027 366.094,218.027 367.5,218.5C 370.502,221.161 372.502,224.495 373.5,228.5C 372.417,228.461 371.417,228.127 370.5,227.5C 369.673,225.838 368.507,224.505 367,223.5C 366.51,222.207 366.343,220.873 366.5,219.5C 365.5,219.5 364.5,219.5 363.5,219.5C 363.657,218.127 363.49,216.793 363,215.5C 361.053,213.937 359.886,211.937 359.5,209.5 Z"/></g>
<g><path style="opacity:1" fill="#5296c0" d="M 84.5,214.5 C 83.0078,218.818 81.0078,222.818 78.5,226.5C 78.3379,224.473 78.5045,222.473 79,220.5C 80.7547,219.33 81.7547,217.663 82,215.5C 82.6708,214.748 83.5041,214.414 84.5,214.5 Z"/></g>
<g><path style="opacity:0.58" fill="#8ac2dd" d="M 285.5,218.5 C 285.573,220.027 284.906,221.027 283.5,221.5C 283.427,219.973 284.094,218.973 285.5,218.5 Z"/></g>
<g><path style="opacity:1" fill="#6ea4c6" d="M 62.5,227.5 C 64.9893,227.241 66.656,228.241 67.5,230.5C 65.5659,229.89 63.8993,228.89 62.5,227.5 Z"/></g>
<g><path style="opacity:1" fill="#5b98bf" d="M 13.5,218.5 C 11.9024,228.328 12.569,237.994 15.5,247.5C 9.77142,238.158 9.10475,228.491 13.5,218.5 Z"/></g>
<g><path style="opacity:1" fill="#66a4c7" d="M 78.5,226.5 C 77.6743,229.485 76.341,232.151 74.5,234.5C 74.3118,230.948 75.6452,228.281 78.5,226.5 Z"/></g>
<g><path style="opacity:0.78" fill="#6bacd1" d="M 434.5,199.5 C 420.5,199.5 406.5,199.5 392.5,199.5C 392.5,201.167 392.5,202.833 392.5,204.5C 392.5,254.167 392.5,303.833 392.5,353.5C 392.5,354.833 392.5,356.167 392.5,357.5C 391.501,304.669 391.168,251.669 391.5,198.5C 406.01,198.171 420.343,198.504 434.5,199.5 Z"/></g>
<g><path style="opacity:0.765" fill="#99cade" d="M 69.5,232.5 C 71.5,232.5 72.5,233.5 72.5,235.5C 71.1667,234.833 70.1667,233.833 69.5,232.5 Z"/></g>
<g><path style="opacity:0.316" fill="#9dd6f2" d="M 144.5,309.5 C 144.5,272.833 144.5,236.167 144.5,199.5C 130.5,199.5 116.5,199.5 102.5,199.5C 102.5,236.167 102.5,272.833 102.5,309.5C 101.502,272.67 101.168,235.67 101.5,198.5C 116.167,198.5 130.833,198.5 145.5,198.5C 145.832,235.67 145.498,272.67 144.5,309.5 Z"/></g>
<g><path style="opacity:1" fill="#1f79ab" d="M 144.5,309.5 C 130.5,309.5 116.5,309.5 102.5,309.5C 102.5,272.833 102.5,236.167 102.5,199.5C 116.5,199.5 130.5,199.5 144.5,199.5C 144.5,236.167 144.5,272.833 144.5,309.5 Z"/></g>
<g><path style="opacity:1" fill="#0a7bbb" d="M 103.5,200.5 C 116.5,200.5 129.5,200.5 142.5,200.5C 142.5,236.167 142.5,271.833 142.5,307.5C 130.978,307.243 119.478,307.576 108,308.5C 106.342,308.325 105.009,307.658 104,306.5C 103.5,271.168 103.333,235.835 103.5,200.5 Z"/></g>
<g><path style="opacity:1" fill="#74add2" d="M 373.5,229.5 C 375.806,233.085 377.139,237.085 377.5,241.5C 375.589,237.767 374.256,233.767 373.5,229.5 Z"/></g>
<g><path style="opacity:1" fill="#5a9ac1" d="M 450.5,243.5 C 449.322,239.824 447.822,236.157 446,232.5C 444.319,230.572 442.486,230.239 440.5,231.5C 441.134,230.053 442.301,229.387 444,229.5C 446.263,230.428 448.263,231.761 450,233.5C 450.498,236.817 450.665,240.15 450.5,243.5 Z"/></g>
<g><path style="opacity:0.059" fill="#d0deef" d="M 74.5,234.5 C 74.2893,236.424 73.6226,236.757 72.5,235.5C 73.1667,235.167 73.8333,234.833 74.5,234.5 Z"/></g>
<g><path style="opacity:0.624" fill="#85c1e0" d="M 491.5,230.5 C 492.924,232.515 493.59,234.848 493.5,237.5C 492.076,235.485 491.41,233.152 491.5,230.5 Z"/></g>
<g><path style="opacity:1" fill="#7cafcd" d="M 52.5,237.5 C 54.674,237.75 56.3406,238.75 57.5,240.5C 55.0107,240.759 53.344,239.759 52.5,237.5 Z"/></g>
<g><path style="opacity:1" fill="#1d7bad" d="M 256.5,215.5 C 258.483,218.799 259.483,222.466 259.5,226.5C 259.5,253.833 259.5,281.167 259.5,308.5C 247.5,308.5 235.5,308.5 223.5,308.5C 234.988,307.505 246.655,307.172 258.5,307.5C 258.667,279.831 258.5,252.165 258,224.5C 257.304,221.522 256.804,218.522 256.5,215.5 Z"/></g>
<g><path style="opacity:1" fill="#468cb9" d="M 327.5,230.5 C 325.692,230.491 324.025,230.991 322.5,232C 316.261,239.647 313.595,248.48 314.5,258.5C 313.191,256.429 312.525,253.929 312.5,251C 313.411,243.096 315.578,235.596 319,228.5C 320.835,230.964 322.835,230.964 325,228.5C 326.301,228.639 327.134,229.305 327.5,230.5 Z"/></g>
<g><path style="opacity:1" fill="#3887bc" d="M 333.5,235.5 C 334.496,235.414 335.329,235.748 336,236.5C 336.977,238.74 337.477,241.073 337.5,243.5C 338.552,243.351 339.552,243.517 340.5,244C 341.313,245.803 342.48,247.303 344,248.5C 345.057,247.373 346.223,246.873 347.5,247C 346.556,249.719 346.223,252.552 346.5,255.5C 345.167,255.5 343.833,255.5 342.5,255.5C 342.517,251.623 341.351,250.957 339,253.5C 338.449,258.697 339.283,263.697 341.5,268.5C 341.167,269.167 340.833,269.833 340.5,270.5C 339.614,269.675 339.281,268.675 339.5,267.5C 338.5,267.5 337.5,267.5 336.5,267.5C 336.5,269.5 336.5,271.5 336.5,273.5C 335.041,273.433 333.708,273.766 332.5,274.5C 338.695,261.671 339.029,248.671 333.5,235.5 Z"/></g>
<g><path style="opacity:1" fill="#5d9cc2" d="M 64.5,244.5 C 68.9757,245.657 72.6423,247.99 75.5,251.5C 74.8826,251.611 74.3826,251.944 74,252.5C 72.0674,249.455 69.234,247.788 65.5,247.5C 64.6143,246.675 64.281,245.675 64.5,244.5 Z"/></g>
<g><path style="opacity:1" fill="#73a9c6" d="M 17.5,251.5 C 20.179,251.525 21.5123,252.858 21.5,255.5C 19.8333,254.5 18.5,253.167 17.5,251.5 Z"/></g>
<g><path style="opacity:0.878" fill="#438eba" d="M 207.5,239.5 C 207.013,240.473 206.513,241.473 206,242.5C 205.5,264.831 205.333,287.164 205.5,309.5C 190.99,309.829 176.657,309.496 162.5,308.5C 163.167,308.5 163.833,308.5 164.5,308.5C 177.833,308.5 191.167,308.5 204.5,308.5C 204.5,285.5 204.5,262.5 204.5,239.5C 205.5,239.5 206.5,239.5 207.5,239.5 Z"/></g>
<g><path style="opacity:1" fill="#307daa" d="M 210.5,236.5 C 213.308,236.693 215.975,237.36 218.5,238.5C 218.5,261.833 218.5,285.167 218.5,308.5C 217.833,285.833 217.167,263.167 216.5,240.5C 213.737,238.319 210.737,237.985 207.5,239.5C 207.5,238.5 207.5,237.5 207.5,236.5C 208.5,236.5 209.5,236.5 210.5,236.5 Z"/></g>
<g><path style="opacity:1" fill="#458ebd" d="M 79.5,255.5 C 87.2395,265.119 89.2395,275.785 85.5,287.5C 85.8293,281.463 85.4959,275.463 84.5,269.5C 83.914,269.709 83.414,270.043 83,270.5C 82.7132,268.109 82.2132,265.776 81.5,263.5C 79.5269,262.669 77.5269,262.502 75.5,263C 76.7158,261.26 78.3825,260.26 80.5,260C 79.6198,258.644 79.2865,257.144 79.5,255.5 Z"/></g>
<g><path style="opacity:1" fill="#478fbf" d="M 30.5,261.5 C 35.2734,261.846 39.9401,262.679 44.5,264C 45.6956,264.654 45.6956,265.154 44.5,265.5C 42.6687,264.071 40.6687,263.571 38.5,264C 40.8625,266.555 43.6958,268.388 47,269.5C 47.49,270.793 47.6567,272.127 47.5,273.5C 42.0463,269.267 36.3796,265.267 30.5,261.5 Z"/></g>
<g><path style="opacity:1" fill="#5b9ac3" d="M 315.5,265.5 C 317.07,268.314 318.403,271.314 319.5,274.5C 318.5,274.5 317.5,274.5 316.5,274.5C 316.296,271.482 315.963,268.482 315.5,265.5 Z"/></g>
<g><path style="opacity:1" fill="#3d88b7" d="M 26.5,273.5 C 25.8826,273.611 25.3826,273.944 25,274.5C 24.0718,271.965 22.2385,270.965 19.5,271.5C 19.472,273.582 20.1387,275.416 21.5,277C 19.8659,277.494 18.1992,277.66 16.5,277.5C 16.33,278.822 16.6634,279.989 17.5,281C 15.5932,282.122 13.5932,282.955 11.5,283.5C 14.0132,278.308 16.6798,273.142 19.5,268C 22.4644,268.772 24.7977,270.605 26.5,273.5 Z"/></g>
<g><path style="opacity:1" fill="#609bc3" d="M 376.5,270.5 C 376.333,274.673 375,278.34 372.5,281.5C 372.093,277.005 373.426,273.338 376.5,270.5 Z"/></g>
<g><path style="opacity:0.647" fill="#9bc4dc" d="M 447.5,274.5 C 447.5,276.5 446.5,277.5 444.5,277.5C 445.167,276.167 446.167,275.167 447.5,274.5 Z"/></g>
<g><path style="opacity:1" fill="#70a7c7" d="M 319.5,274.5 C 321.537,275.846 323.537,277.18 325.5,278.5C 322.112,279.031 320.112,277.697 319.5,274.5 Z"/></g>
<g><path style="opacity:1" fill="#428bba" d="M 26.5,273.5 C 31.1943,276.762 36.361,279.095 42,280.5C 45.743,279.685 47.5764,277.352 47.5,273.5C 48.4682,275.607 48.8016,277.941 48.5,280.5C 46.1743,281.151 43.8409,281.818 41.5,282.5C 38.0818,281.194 34.5818,280.194 31,279.5C 30.1268,279.735 29.2935,280.069 28.5,280.5C 27.5793,278.223 26.9126,275.89 26.5,273.5 Z"/></g>
<g><path style="opacity:1" fill="#5196bc" d="M 492.5,275.5 C 491.464,281.285 489.464,286.618 486.5,291.5C 486.052,285.058 488.052,279.725 492.5,275.5 Z"/></g>
<g><path style="opacity:1" fill="#3a8aba" d="M 276.5,271.5 C 277.5,271.5 278.5,271.5 279.5,271.5C 280.027,274.231 280.86,276.898 282,279.5C 286.146,283.56 288.312,288.56 288.5,294.5C 282.689,287.882 278.689,280.215 276.5,271.5 Z"/></g>
<g><path style="opacity:1" fill="#5093c0" d="M 372.5,281.5 C 368.743,291.261 362.409,298.927 353.5,304.5C 353.5,303.167 353.5,301.833 353.5,300.5C 356.766,300.567 358.266,298.901 358,295.5C 359.011,296.337 360.178,296.67 361.5,296.5C 361.201,294.396 361.534,292.396 362.5,290.5C 363.086,290.709 363.586,291.043 364,291.5C 367.101,288.241 369.934,284.908 372.5,281.5 Z"/></g>
<g><path style="opacity:1" fill="#3686bb" d="M 486.5,291.5 C 483.61,298.39 478.943,303.724 472.5,307.5C 472.586,305.323 473.253,303.323 474.5,301.5C 473.36,299.922 472.86,298.256 473,296.5C 475.394,295.049 477.561,295.382 479.5,297.5C 480.096,296.284 480.263,294.951 480,293.5C 480.333,293.167 480.667,292.833 481,292.5C 481.308,293.308 481.808,293.975 482.5,294.5C 483.298,292.922 483.798,291.256 484,289.5C 484.708,290.381 485.542,291.047 486.5,291.5 Z"/></g>
<g><path style="opacity:1" fill="#428bbb" d="M 85.5,287.5 C 81.0067,302.318 71.0067,310.652 55.5,312.5C 56.246,310.657 57.5794,309.324 59.5,308.5C 64.347,307.62 69.0137,306.286 73.5,304.5C 73.4189,301.284 72.9189,298.284 72,295.5C 73.3333,294.833 74.6667,294.167 76,293.5C 76.4922,294.549 76.3256,295.549 75.5,296.5C 76.6888,297.429 78.0222,297.762 79.5,297.5C 79.5,295.5 79.5,293.5 79.5,291.5C 80.552,291.649 81.552,291.483 82.5,291C 83.1634,289.482 84.1634,288.315 85.5,287.5 Z"/></g>
<g><path style="opacity:1" fill="#3f88b7" d="M 11.5,283.5 C 10.1667,287.5 10.1667,291.5 11.5,295.5C 9.71199,295.215 8.04533,295.548 6.5,296.5C 7.71177,298.923 9.71177,299.923 12.5,299.5C 12.5,300.5 12.5,301.5 12.5,302.5C 15.1667,303.167 17.8333,303.833 20.5,304.5C 20.4326,305.959 20.7659,307.292 21.5,308.5C 19.597,308.204 17.9303,307.537 16.5,306.5C 16.0269,305.094 15.0269,304.427 13.5,304.5C 9.63108,303.299 6.63108,300.966 4.5,297.5C 6.33397,292.499 8.6673,287.832 11.5,283.5 Z"/></g>
<g><path style="opacity:1" fill="#6ea4c7" d="M 353.5,304.5 C 351.151,306.341 348.485,307.674 345.5,308.5C 347.281,305.645 349.948,304.312 353.5,304.5 Z"/></g>
<g><path style="opacity:0.306" fill="#aad3ea" d="M 13.5,304.5 C 15.0269,304.427 16.0269,305.094 16.5,306.5C 14.9731,306.573 13.9731,305.906 13.5,304.5 Z"/></g>
<g><path style="opacity:1" fill="#4189b8" d="M 298.5,303.5 C 302.046,303.559 305.379,304.392 308.5,306C 309.365,307.359 310.365,308.526 311.5,309.5C 310.833,309.5 310.167,309.5 309.5,309.5C 305.345,308.258 301.678,306.258 298.5,303.5 Z"/></g>
<g><path style="opacity:1" fill="#79adce" d="M 21.5,308.5 C 24.855,308.69 27.855,309.69 30.5,311.5C 27.0836,311.472 24.0836,310.472 21.5,308.5 Z"/></g>
<g><path style="opacity:0.839" fill="#78afd0" d="M 259.5,226.5 C 260.498,253.995 260.831,281.662 260.5,309.5C 245.833,309.5 231.167,309.5 216.5,309.5C 216.5,286.5 216.5,263.5 216.5,240.5C 217.167,263.167 217.833,285.833 218.5,308.5C 220.167,308.5 221.833,308.5 223.5,308.5C 235.5,308.5 247.5,308.5 259.5,308.5C 259.5,281.167 259.5,253.833 259.5,226.5 Z"/></g>
<g><path style="opacity:0.906" fill="#8fbdd9" d="M 309.5,309.5 C 310.167,309.5 310.833,309.5 311.5,309.5C 312.167,309.5 312.833,309.5 313.5,309.5C 314.5,310.167 315.5,310.833 316.5,311.5C 313.848,311.59 311.515,310.924 309.5,309.5 Z"/></g>
<g><path style="opacity:1" fill="#5e97bf" d="M 345.5,308.5 C 344.158,309.793 342.491,310.626 340.5,311C 332.312,313.394 324.312,313.56 316.5,311.5C 315.5,310.833 314.5,310.167 313.5,309.5C 324.327,311.062 334.994,310.729 345.5,308.5 Z"/></g>
<g><path style="opacity:0.912" fill="#7aaec8" d="M 445.5,309.5 C 451.68,311.182 458.013,311.848 464.5,311.5C 462.444,312.216 460.277,312.883 458,313.5C 453.477,313.033 449.311,311.7 445.5,309.5 Z"/></g>
<g><path style="opacity:0.127" fill="#c1f6ff" d="M 436.5,302.5 C 435.833,320.833 435.167,339.167 434.5,357.5C 434.333,338.497 434.5,319.497 435,300.5C 435.717,301.044 436.217,301.711 436.5,302.5 Z"/></g>
<g><path style="opacity:0.984" fill="#2a7aaa" d="M 472.5,307.5 C 470.421,309.873 467.754,311.206 464.5,311.5C 458.013,311.848 451.68,311.182 445.5,309.5C 441.637,308.306 438.637,305.973 436.5,302.5C 436.217,301.711 435.717,301.044 435,300.5C 434.5,319.497 434.333,338.497 434.5,357.5C 420.253,357.546 406.253,357.546 392.5,357.5C 392.5,356.167 392.5,354.833 392.5,353.5C 394.604,353.201 396.604,353.534 398.5,354.5C 397.624,355.251 396.624,355.751 395.5,356C 408.162,356.5 420.829,356.667 433.5,356.5C 433.808,338.139 433.474,319.806 432.5,301.5C 433.362,299.233 435.029,298.233 437.5,298.5C 437.5,296.5 437.5,294.5 437.5,292.5C 438.675,292.281 439.675,292.614 440.5,293.5C 440.586,296.11 439.919,298.776 438.5,301.5C 440.005,304.05 442.005,306.05 444.5,307.5C 449.036,308.456 453.536,309.456 458,310.5C 462.687,309.133 467.52,308.133 472.5,307.5 Z"/></g>
</svg>
