<svg height="167.943825" viewBox="0 0 20.645084 5.7005326" width="595.437196" xmlns="http://www.w3.org/2000/svg"><g transform="translate(89.569771 -238.030089)"><path d="m-81.360175 239.94751h.886883l-.44203-.93274zm-.1778.3743-.263878.55844h-.460375l1.12007-2.30116h.448027l1.122892 2.30116h-.460375l-.263525-.55844z"/><path d="m-79.288876 240.88032v-2.30117h.426508v1.92052h1.537406v.38065z"/><path d="m0 0c1.418 0 2.14.931 2.14 2.174 0 1.218-.722 2.157-2.14 2.157h-2.208v-4.331zm0 5.428c2.053 0 3.392-1.296 3.392-3.254 0-1.809-1.426-3.27-3.208-3.27h-3.602v6.524z" transform="matrix(.35277777 0 0 -.35277777 -75.843366 240.49382)"/><path d="m0 0-.403 1.141c-.145.411-.213.64-.266.807h-.016c-.053-.175-.129-.403-.274-.807l-.418-1.141zm-.989 3.097h.593l1.987-5.038h-.853l-.487 1.286h-1.864l-.48-1.286h-.821z" transform="matrix(.35277777 0 0 -.35277777 -81.211091 242.86134)"/><path d="m0 0c-.076.198-.107.403-.107.723v2.26h.792v-2.153c0-.206.015-.358.068-.488.092-.235.274-.349.556-.349.342 0 .654.174.829.38v2.61h.792v-2.602c0-.495.015-.807.068-.997h-.684l-.13.388c-.289-.259-.67-.465-1.141-.465-.351 0-.838.145-1.043.693" transform="matrix(.35277777 0 0 -.35277777 -80.424361 243.3286)"/><path d="m0 0v2.123h-.632v.624h.632v.83l.791.243v-1.073h1.081l-.198-.624h-.883v-1.948c0-.327.122-.457.358-.457.221 0 .419.084.564.183l.251-.548c-.251-.175-.647-.282-1.005-.282-.601 0-.959.343-.959.929" transform="matrix(.35277777 0 0 -.35277777 -78.939626 243.24527)"/><path d="m0 0c0 .716-.335 1.233-.936 1.233s-.944-.517-.944-1.233c0-.723.343-1.241.944-1.241s.936.518.936 1.241m-2.694 0c0 1.073.7 1.88 1.758 1.88 1.05 0 1.75-.807 1.75-1.88s-.7-1.888-1.75-1.888-1.758.815-1.758 1.888" transform="matrix(.35277777 0 0 -.35277777 -77.162367 242.90706)"/><path d="m0 0h.662l.084-.426c.365.296.776.517 1.225.517.426 0 .769-.198.943-.578.435.373.891.578 1.31.578.616 0 1.149-.358 1.149-1.293v-2.398h-.792v2.177c0 .456-.091.821-.57.821-.32 0-.647-.182-.936-.418.007-.045.007-.107.007-.168v-2.412h-.791v2.169c0 .457-.092.829-.564.829-.327 0-.654-.182-.936-.418v-2.58h-.791z" transform="matrix(.35277777 0 0 -.35277777 -76.617395 242.27612)"/><path d="m0 0c0 .716-.335 1.233-.936 1.233s-.944-.517-.944-1.233c0-.723.343-1.241.944-1.241s.936.518.936 1.241m-2.694 0c0 1.073.7 1.88 1.758 1.88 1.05 0 1.75-.807 1.75-1.88s-.7-1.888-1.75-1.888-1.758.815-1.758 1.888" transform="matrix(.35277777 0 0 -.35277777 -73.519089 242.90706)"/><path d="m0 0v2.123h-.632v.624h.632v.83l.792.243v-1.073h1.08l-.198-.624h-.882v-1.948c0-.327.121-.457.357-.457.221 0 .419.084.564.183l.251-.548c-.251-.175-.647-.282-1.005-.282-.601 0-.959.343-.959.929" transform="matrix(.35277777 0 0 -.35277777 -72.861371 243.24527)"/><path d="m-71.956637 242.27612h.279048v1.27h-.279048zm-.03493-.40534c0-.0967.07267-.1718.174273-.1718.102305 0 .174625.0723.174625.1718 0 .0967-.07514.1718-.174625.1718-.1016 0-.174273-.0751-.174273-.1718"/><path d="m0 0h.807l.944-2.595h.015l.921 2.595h.807l-1.439-3.623h-.609z" transform="matrix(.35277777 0 0 -.35277777 -71.484126 242.27612)"/><path d="m0 0c-.015.457-.236.906-.746.906-.479 0-.76-.419-.768-.906zm-2.314-.358c0 1.088.602 1.88 1.576 1.88.982 0 1.545-.731 1.545-1.895v-.19h-2.313c.014-.617.418-1.051 1.072-1.051.358 0 .648.099.906.244l.236-.54c-.35-.228-.799-.336-1.226-.336-1.255 0-1.796.891-1.796 1.888" transform="matrix(.35277777 0 0 -.35277777 -69.341671 242.78084)"/><g fill-rule="evenodd"><path d="m-89.437481 238.16238h5.435953v2.7178h-5.435953z" fill="#e4032e"/><path d="m-89.437481 240.88018h5.435953v2.71815h-5.435953z"/><path d="m-88.487803 240.71508h3.536597v.33055h-3.536597z" fill="#fff"/></g></g></svg>