<?xml version="1.0" encoding="UTF-8"?>
<!DOCTYPE svg PUBLIC "-//W3C//DTD SVG 1.1//EN" "http://www.w3.org/Graphics/SVG/1.1/DTD/svg11.dtd">
<svg xmlns="http://www.w3.org/2000/svg" version="1.1" width="500px" height="500px" style="shape-rendering:geometricPrecision; text-rendering:geometricPrecision; image-rendering:optimizeQuality; fill-rule:evenodd; clip-rule:evenodd" xmlns:xlink="http://www.w3.org/1999/xlink">
<g><path style="opacity:1" fill="#31497c" d="M 99.5,173.5 C 94.7575,173.765 90.4242,175.098 86.5,177.5C 86.38,176.414 85.7133,175.747 84.5,175.5C 81.6944,177.064 78.6944,177.73 75.5,177.5C 75.2291,175.62 75.8958,174.287 77.5,173.5C 80.0319,172.32 82.6986,171.32 85.5,170.5C 83.9716,169.139 82.3049,167.972 80.5,167C 84.9847,166.855 89.318,166.022 93.5,164.5C 96.7847,164.421 100.118,164.754 103.5,165.5C 104.861,169.074 103.527,170.74 99.5,170.5C 99.5,171.5 99.5,172.5 99.5,173.5 Z"/></g>
<g><path style="opacity:1" fill="#455882" d="M 122.5,190.5 C 122.666,185.489 122.499,180.489 122,175.5C 120.859,173.391 119.359,171.558 117.5,170C 115.288,169.211 113.288,169.378 111.5,170.5C 111.167,170.5 110.833,170.5 110.5,170.5C 106.777,171.297 103.11,172.297 99.5,173.5C 99.5,172.5 99.5,171.5 99.5,170.5C 103.527,170.74 104.861,169.074 103.5,165.5C 100.118,164.754 96.7847,164.421 93.5,164.5C 89.318,166.022 84.9847,166.855 80.5,167C 82.3049,167.972 83.9716,169.139 85.5,170.5C 82.6986,171.32 80.0319,172.32 77.5,173.5C 77.2914,172.078 76.7914,170.745 76,169.5C 74.2111,171.229 72.0444,171.896 69.5,171.5C 74.4176,167.572 80.0843,165.072 86.5,164C 97.3784,162.863 108.045,163.863 118.5,167C 120.667,167.833 122.167,169.333 123,171.5C 123.82,178.014 123.653,184.347 122.5,190.5 Z"/></g>
<g><path style="opacity:1" fill="#445782" d="M 313.5,178.5 C 312.5,178.5 311.5,178.5 310.5,178.5C 310.768,180.099 310.434,181.432 309.5,182.5C 309.808,180.076 309.474,177.743 308.5,175.5C 307.833,177.167 307.167,178.833 306.5,180.5C 304.624,176.065 305.79,172.732 310,170.5C 310.333,171.167 310.667,171.833 311,172.5C 312.74,167.3 313.907,161.966 314.5,156.5C 313.167,156.5 311.833,156.5 310.5,156.5C 311.823,159.281 311.656,161.947 310,164.5C 309.311,163.643 308.478,162.977 307.5,162.5C 305.701,164.92 304.034,167.254 302.5,169.5C 303.446,163.441 306.113,158.274 310.5,154C 315.568,153.412 317.568,155.745 316.5,161C 315.948,166.926 314.948,172.759 313.5,178.5 Z"/></g>
<g><path style="opacity:1" fill="#465885" d="M 476.5,191.5 C 476.167,191.5 475.833,191.5 475.5,191.5C 475.469,186.375 474.636,181.375 473,176.5C 473.123,181.008 471.956,185.008 469.5,188.5C 471.374,180.502 471.707,172.502 470.5,164.5C 468.369,163.686 466.036,163.186 463.5,163C 464.167,162.667 464.833,162.333 465.5,162C 464.62,160.644 464.286,159.144 464.5,157.5C 470.153,154.436 474.653,155.769 478,161.5C 480.1,171.742 479.6,181.742 476.5,191.5 Z"/></g>
<g><path style="opacity:1" fill="#3a507f" d="M 464.5,157.5 C 464.286,159.144 464.62,160.644 465.5,162C 464.833,162.333 464.167,162.667 463.5,163C 466.036,163.186 468.369,163.686 470.5,164.5C 466.933,165.068 464.599,167.068 463.5,170.5C 462.167,170.5 460.833,170.5 459.5,170.5C 459.856,173.776 458.856,176.443 456.5,178.5C 455.061,177.491 453.728,177.824 452.5,179.5C 451.833,181.833 451.167,184.167 450.5,186.5C 449.719,185.271 449.219,183.938 449,182.5C 448.329,181.748 447.496,181.414 446.5,181.5C 449.629,171.197 455.629,163.197 464.5,157.5 Z"/></g>
<g><path style="opacity:1" fill="#56668d" d="M 99.5,173.5 C 93.2331,177.1 87.2331,181.1 81.5,185.5C 81.5,184.167 81.5,182.833 81.5,181.5C 82.8333,181.5 84.1667,181.5 85.5,181.5C 85.2322,179.901 85.5655,178.568 86.5,177.5C 90.4242,175.098 94.7575,173.765 99.5,173.5 Z"/></g>
<g><path style="opacity:1" fill="#30497e" d="M 309.5,182.5 C 309.5,182.833 309.5,183.167 309.5,183.5C 308.679,186.641 308.179,189.975 308,193.5C 306.442,192.655 305.442,193.321 305,195.5C 304.5,194.5 304,193.5 303.5,192.5C 305.457,189.432 305.957,186.099 305,182.5C 303.08,186.631 301.58,190.965 300.5,195.5C 300.167,195.833 299.833,196.167 299.5,196.5C 298.548,194.955 298.215,193.288 298.5,191.5C 298.46,188.575 299.293,185.909 301,183.5C 301.435,178.816 301.935,174.149 302.5,169.5C 304.034,167.254 305.701,164.92 307.5,162.5C 308.478,162.977 309.311,163.643 310,164.5C 311.656,161.947 311.823,159.281 310.5,156.5C 311.833,156.5 313.167,156.5 314.5,156.5C 313.907,161.966 312.74,167.3 311,172.5C 310.667,171.833 310.333,171.167 310,170.5C 305.79,172.732 304.624,176.065 306.5,180.5C 307.167,178.833 307.833,177.167 308.5,175.5C 309.474,177.743 309.808,180.076 309.5,182.5 Z"/></g>
<g><path style="opacity:1" fill="#324b7c" d="M 77.5,173.5 C 75.8958,174.287 75.2291,175.62 75.5,177.5C 78.6944,177.73 81.6944,177.064 84.5,175.5C 85.7133,175.747 86.38,176.414 86.5,177.5C 85.5655,178.568 85.2322,179.901 85.5,181.5C 84.1667,181.5 82.8333,181.5 81.5,181.5C 78.8127,181.336 76.146,181.503 73.5,182C 71.3248,184.525 69.6581,187.358 68.5,190.5C 67.3291,188.831 65.9958,187.331 64.5,186C 66.5054,182.661 69.172,179.995 72.5,178C 67.5253,178.036 62.5253,178.869 57.5,180.5C 60.9289,176.738 64.9289,173.738 69.5,171.5C 72.0444,171.896 74.2111,171.229 76,169.5C 76.7914,170.745 77.2914,172.078 77.5,173.5 Z"/></g>
<g><path style="opacity:1" fill="#5d6b8e" d="M 313.5,178.5 C 312.61,184.387 311.277,190.054 309.5,195.5C 309.5,191.5 309.5,187.5 309.5,183.5C 309.5,183.167 309.5,182.833 309.5,182.5C 310.434,181.432 310.768,180.099 310.5,178.5C 311.5,178.5 312.5,178.5 313.5,178.5 Z"/></g>
<g><path style="opacity:1" fill="#54638a" d="M 463.5,170.5 C 458.681,181.96 454.681,193.626 451.5,205.5C 451.116,201.092 451.783,196.925 453.5,193C 452.794,189.484 453.294,185.984 455,182.5C 455.333,183.167 455.667,183.833 456,184.5C 456.495,182.527 456.662,180.527 456.5,178.5C 458.856,176.443 459.856,173.776 459.5,170.5C 460.833,170.5 462.167,170.5 463.5,170.5 Z"/></g>
<g><path style="opacity:1" fill="#384f7f" d="M 456.5,178.5 C 456.662,180.527 456.495,182.527 456,184.5C 455.667,183.833 455.333,183.167 455,182.5C 453.294,185.984 452.794,189.484 453.5,193C 451.783,196.925 451.116,201.092 451.5,205.5C 450.65,211.224 449.65,216.891 448.5,222.5C 447.513,227.305 447.179,232.305 447.5,237.5C 446.514,233.03 446.181,228.363 446.5,223.5C 447.83,218.519 447.83,213.519 446.5,208.5C 446.76,206.813 447.427,205.313 448.5,204C 446.784,200.017 445.784,195.85 445.5,191.5C 444.5,191.5 443.5,191.5 442.5,191.5C 443.321,187.873 444.654,184.54 446.5,181.5C 447.496,181.414 448.329,181.748 449,182.5C 449.219,183.938 449.719,185.271 450.5,186.5C 451.167,184.167 451.833,181.833 452.5,179.5C 453.728,177.824 455.061,177.491 456.5,178.5 Z"/></g>
<g><path style="opacity:1" fill="#5d6b8f" d="M 81.5,185.5 C 76.8207,190.178 71.8207,194.511 66.5,198.5C 67.4422,195.58 68.7755,192.914 70.5,190.5C 73.983,188.662 77.6497,186.995 81.5,185.5 Z"/></g>
<g><path style="opacity:1" fill="#324a7e" d="M 81.5,181.5 C 81.5,182.833 81.5,184.167 81.5,185.5C 77.6497,186.995 73.983,188.662 70.5,190.5C 68.7755,192.914 67.4422,195.58 66.5,198.5C 66.5,199.167 66.1667,199.5 65.5,199.5C 63.396,199.799 61.396,199.466 59.5,198.5C 61.3279,195.806 63.6613,193.806 66.5,192.5C 61.9992,192.082 58.3326,193.915 55.5,198C 49.6205,200.897 43.9539,204.231 38.5,208C 41.4505,208.938 43.7839,209.772 45.5,210.5C 42.8333,210.5 40.1667,210.5 37.5,210.5C 37.5198,208.857 36.8532,207.524 35.5,206.5C 38.8161,204.191 42.1495,201.857 45.5,199.5C 47.0709,198.691 48.7376,198.357 50.5,198.5C 50.5,197.167 50.5,195.833 50.5,194.5C 45.5004,194.866 44.5004,193.2 47.5,189.5C 50.2109,185.788 53.5442,182.788 57.5,180.5C 62.5253,178.869 67.5253,178.036 72.5,178C 69.172,179.995 66.5054,182.661 64.5,186C 65.9958,187.331 67.3291,188.831 68.5,190.5C 69.6581,187.358 71.3248,184.525 73.5,182C 76.146,181.503 78.8127,181.336 81.5,181.5 Z"/></g>
<g><path style="opacity:0.988" fill="#7583a3" d="M 475.5,191.5 C 475.833,191.5 476.167,191.5 476.5,191.5C 476.435,194.428 475.768,197.095 474.5,199.5C 474.279,196.721 474.612,194.054 475.5,191.5 Z"/></g>
<g><path style="opacity:1" fill="#2f4a7d" d="M 122.5,190.5 C 122.5,190.833 122.5,191.167 122.5,191.5C 121.063,195.001 119.396,198.501 117.5,202C 118.2,204.472 119.2,206.805 120.5,209C 120.43,209.765 120.097,210.265 119.5,210.5C 118.59,207.318 116.59,204.985 113.5,203.5C 110.839,205.172 110.839,206.839 113.5,208.5C 108.911,210.494 106.911,214.161 107.5,219.5C 106.5,219.5 105.5,219.5 104.5,219.5C 105.76,215.641 106.76,211.641 107.5,207.5C 107.151,204.955 107.984,202.955 110,201.5C 111.8,193.361 112.8,185.027 113,176.5C 113.692,175.975 114.192,175.308 114.5,174.5C 113.09,173.431 112.09,172.097 111.5,170.5C 113.288,169.378 115.288,169.211 117.5,170C 119.359,171.558 120.859,173.391 122,175.5C 122.499,180.489 122.666,185.489 122.5,190.5 Z"/></g>
<g><path style="opacity:1" fill="#616e8f" d="M 469.5,188.5 C 469.196,191.522 468.696,194.522 468,197.5C 467.292,198.381 466.458,199.047 465.5,199.5C 466.462,195.605 467.796,191.939 469.5,188.5 Z"/></g>
<g><path style="opacity:1" fill="#30497c" d="M 139.5,189.5 C 140.609,189.557 141.609,189.89 142.5,190.5C 143.018,191.577 143.352,192.744 143.5,194C 142.622,195.8 141.955,197.633 141.5,199.5C 143.604,199.201 145.604,199.534 147.5,200.5C 146.995,201.919 145.995,202.585 144.5,202.5C 143.348,201.375 142.348,201.375 141.5,202.5C 140.265,202.279 139.265,201.612 138.5,200.5C 137.494,200.938 137.494,201.604 138.5,202.5C 137.052,203.354 135.719,204.354 134.5,205.5C 131.085,201.432 128.085,201.765 125.5,206.5C 124.761,206.631 124.094,206.464 123.5,206C 124.924,203.899 126.258,201.733 127.5,199.5C 131.987,196.612 135.987,193.279 139.5,189.5 Z"/></g>
<g><path style="opacity:1" fill="#4b5c83" d="M 302.5,169.5 C 301.935,174.149 301.435,178.816 301,183.5C 299.293,185.909 298.46,188.575 298.5,191.5C 298.048,196.065 296.715,200.398 294.5,204.5C 293.5,204.5 292.5,204.5 291.5,204.5C 295.646,192.897 299.312,181.23 302.5,169.5 Z"/></g>
<g><path style="opacity:0.976" fill="#647090" d="M 309.5,195.5 C 309.058,199.154 308.724,202.821 308.5,206.5C 316.019,206.175 323.352,206.508 330.5,207.5C 322.797,208.536 315.131,208.536 307.5,207.5C 306.911,203.029 307.577,199.029 309.5,195.5 Z"/></g>
<g><path style="opacity:1" fill="#5b698d" d="M 110.5,170.5 C 110.833,170.5 111.167,170.5 111.5,170.5C 112.09,172.097 113.09,173.431 114.5,174.5C 114.192,175.308 113.692,175.975 113,176.5C 112.8,185.027 111.8,193.361 110,201.5C 107.984,202.955 107.151,204.955 107.5,207.5C 107.023,210.025 105.69,212.025 103.5,213.5C 106.915,203.749 109.415,193.749 111,183.5C 111.534,179.141 111.368,174.808 110.5,170.5 Z"/></g>
<g><path style="opacity:1" fill="#30497b" d="M 309.5,183.5 C 309.5,187.5 309.5,191.5 309.5,195.5C 307.577,199.029 306.911,203.029 307.5,207.5C 306.778,207.082 306.278,206.416 306,205.5C 305.535,206.931 304.701,208.097 303.5,209C 308.11,209.352 308.61,210.852 305,213.5C 304.184,212.177 303.017,211.511 301.5,211.5C 299.019,210.304 299.019,208.804 301.5,207C 300.809,205.933 300.309,204.766 300,203.5C 299.333,204.833 298.667,204.833 298,203.5C 297.591,205.991 296.424,207.991 294.5,209.5C 294.709,210.086 295.043,210.586 295.5,211C 293.521,213.612 291.188,214.779 288.5,214.5C 288.918,213.778 289.584,213.278 290.5,213C 289.833,212.667 289.167,212.333 288.5,212C 291.109,210.126 292.109,207.626 291.5,204.5C 292.5,204.5 293.5,204.5 294.5,204.5C 296.715,200.398 298.048,196.065 298.5,191.5C 298.215,193.288 298.548,194.955 299.5,196.5C 299.833,196.167 300.167,195.833 300.5,195.5C 301.58,190.965 303.08,186.631 305,182.5C 305.957,186.099 305.457,189.432 303.5,192.5C 304,193.5 304.5,194.5 305,195.5C 305.442,193.321 306.442,192.655 308,193.5C 308.179,189.975 308.679,186.641 309.5,183.5 Z"/></g>
<g><path style="opacity:1" fill="#344b7d" d="M 475.5,191.5 C 474.612,194.054 474.279,196.721 474.5,199.5C 473.778,199.082 473.278,198.416 473,197.5C 472.064,201.114 471.564,204.78 471.5,208.5C 471.5,208.833 471.5,209.167 471.5,209.5C 470.357,209.908 469.357,210.575 468.5,211.5C 466.036,216.66 464.036,221.993 462.5,227.5C 461.522,225.03 460.189,222.863 458.5,221C 459.098,218.521 460.265,216.354 462,214.5C 462.495,212.527 462.662,210.527 462.5,208.5C 463.304,205.421 464.304,202.421 465.5,199.5C 466.458,199.047 467.292,198.381 468,197.5C 468.696,194.522 469.196,191.522 469.5,188.5C 471.956,185.008 473.123,181.008 473,176.5C 474.636,181.375 475.469,186.375 475.5,191.5 Z"/></g>
<g><path style="opacity:1" fill="#516288" d="M 442.5,192.5 C 442.051,199.858 441.384,207.191 440.5,214.5C 440.014,217.764 438.847,220.764 437,223.5C 435.898,239.258 436.564,254.925 439,270.5C 439.671,271.252 440.504,271.586 441.5,271.5C 441.477,273.6 442.144,275.433 443.5,277C 441.002,279.482 441.002,281.815 443.5,284C 442.748,284.671 442.414,285.504 442.5,286.5C 441.108,284.727 439.941,282.727 439,280.5C 437.961,281.71 436.794,282.71 435.5,283.5C 435.762,280.499 436.596,277.832 438,275.5C 437.667,275.167 437.333,274.833 437,274.5C 435.736,276.607 433.903,277.607 431.5,277.5C 432.793,275.704 434.293,274.037 436,272.5C 433.559,251.094 434.226,229.76 438,208.5C 438.902,202.876 440.402,197.542 442.5,192.5 Z"/></g>
<g><path style="opacity:1" fill="#3a517f" d="M 65.5,199.5 C 59.8367,205.006 53.17,209.006 45.5,211.5C 45.5,211.167 45.5,210.833 45.5,210.5C 43.7839,209.772 41.4505,208.938 38.5,208C 43.9539,204.231 49.6205,200.897 55.5,198C 58.3326,193.915 61.9992,192.082 66.5,192.5C 63.6613,193.806 61.3279,195.806 59.5,198.5C 61.396,199.466 63.396,199.799 65.5,199.5 Z"/></g>
<g><path style="opacity:1" fill="#30497e" d="M 301.5,211.5 C 301.5,213.5 301.5,215.5 301.5,217.5C 303.288,217.215 304.955,217.548 306.5,218.5C 305.675,219.386 304.675,219.719 303.5,219.5C 303.5,220.833 303.5,222.167 303.5,223.5C 301.824,224.183 301.157,225.517 301.5,227.5C 299.822,226.253 298.489,224.586 297.5,222.5C 294.871,221.791 292.371,220.791 290,219.5C 288.726,220.535 287.56,221.702 286.5,223C 284.597,223.774 282.93,223.44 281.5,222C 284.879,220.508 286.879,218.008 287.5,214.5C 287.833,214.5 288.167,214.5 288.5,214.5C 291.188,214.779 293.521,213.612 295.5,211C 295.043,210.586 294.709,210.086 294.5,209.5C 296.424,207.991 297.591,205.991 298,203.5C 298.667,204.833 299.333,204.833 300,203.5C 300.309,204.766 300.809,205.933 301.5,207C 299.019,208.804 299.019,210.304 301.5,211.5 Z"/></g>
<g><path style="opacity:1" fill="#647495" d="M 474.5,199.5 C 474.072,202.785 473.072,205.785 471.5,208.5C 471.564,204.78 472.064,201.114 473,197.5C 473.278,198.416 473.778,199.082 474.5,199.5 Z"/></g>
<g><path style="opacity:1" fill="#394f80" d="M 141.5,202.5 C 137.167,206.167 133.167,210.167 129.5,214.5C 127.571,214.231 125.905,214.731 124.5,216C 126.795,216.984 126.461,217.817 123.5,218.5C 122.828,219.949 122.161,221.282 121.5,222.5C 121.975,219.918 121.308,217.918 119.5,216.5C 120.366,213.447 122.2,211.113 125,209.5C 125.483,208.552 125.649,207.552 125.5,206.5C 128.085,201.765 131.085,201.432 134.5,205.5C 135.719,204.354 137.052,203.354 138.5,202.5C 137.494,201.604 137.494,200.938 138.5,200.5C 139.265,201.612 140.265,202.279 141.5,202.5 Z"/></g>
<g><path style="opacity:1" fill="#3d537d" d="M 139.5,189.5 C 135.987,193.279 131.987,196.612 127.5,199.5C 126.258,201.733 124.924,203.899 123.5,206C 124.094,206.464 124.761,206.631 125.5,206.5C 125.649,207.552 125.483,208.552 125,209.5C 122.2,211.113 120.366,213.447 119.5,216.5C 118.167,214.5 118.167,212.5 119.5,210.5C 120.097,210.265 120.43,209.765 120.5,209C 119.2,206.805 118.2,204.472 117.5,202C 119.396,198.501 121.063,195.001 122.5,191.5C 122.46,194.988 121.793,198.321 120.5,201.5C 119.427,202.251 119.26,203.251 120,204.5C 120.717,203.956 121.217,203.289 121.5,202.5C 126.078,196.21 132.078,191.877 139.5,189.5 Z"/></g>
<g><path style="opacity:0.302" fill="#aebee4" d="M 120.5,201.5 C 120.5,202.167 120.833,202.5 121.5,202.5C 121.217,203.289 120.717,203.956 120,204.5C 119.26,203.251 119.427,202.251 120.5,201.5 Z"/></g>
<g><path style="opacity:1" fill="#2f4a7d" d="M 442.5,191.5 C 443.5,191.5 444.5,191.5 445.5,191.5C 445.784,195.85 446.784,200.017 448.5,204C 447.427,205.313 446.76,206.813 446.5,208.5C 447.83,213.519 447.83,218.519 446.5,223.5C 446.167,223.5 445.833,223.5 445.5,223.5C 445.55,218.448 445.05,213.448 444,208.5C 443.579,211.02 442.412,213.02 440.5,214.5C 441.384,207.191 442.051,199.858 442.5,192.5C 442.5,192.167 442.5,191.833 442.5,191.5 Z"/></g>
<g><path style="opacity:0.988" fill="#384e7f" d="M 47.5,189.5 C 44.5004,193.2 45.5004,194.866 50.5,194.5C 50.5,195.833 50.5,197.167 50.5,198.5C 48.7376,198.357 47.0709,198.691 45.5,199.5C 42.1495,201.857 38.8161,204.191 35.5,206.5C 36.8532,207.524 37.5198,208.857 37.5,210.5C 40.1667,210.5 42.8333,210.5 45.5,210.5C 45.5,210.833 45.5,211.167 45.5,211.5C 43.9582,212.301 42.2915,212.634 40.5,212.5C 31.8211,212.271 23.8211,211.437 16.5,210C 17.7101,208.961 18.7101,207.794 19.5,206.5C 24.6867,204.573 29.6867,202.073 34.5,199C 38.8923,195.815 43.2256,192.648 47.5,189.5 Z"/></g>
<g><path style="opacity:1" fill="#30497d" d="M 146.5,229.5 C 145.218,241.263 143.885,241.263 142.5,229.5C 142.667,228.167 142.833,226.833 143,225.5C 143.308,226.308 143.808,226.975 144.5,227.5C 145.202,220.809 145.868,214.143 146.5,207.5C 145.289,206.28 145.289,205.113 146.5,204C 145.584,203.722 144.918,203.222 144.5,202.5C 145.995,202.585 146.995,201.919 147.5,200.5C 145.604,199.534 143.604,199.201 141.5,199.5C 141.955,197.633 142.622,195.8 143.5,194C 143.352,192.744 143.018,191.577 142.5,190.5C 143.568,189.566 144.901,189.232 146.5,189.5C 146.336,192.187 146.503,194.854 147,197.5C 147.641,195.187 148.974,193.52 151,192.5C 151.945,192.905 152.612,193.572 153,194.5C 154.973,205.492 154.973,216.492 153,227.5C 152.667,227.833 152.333,228.167 152,228.5C 150.383,227.149 149.216,225.482 148.5,223.5C 147.705,225.495 147.039,227.495 146.5,229.5 Z"/></g>
<g><path style="opacity:0.984" fill="#4c5d83" d="M 19.5,206.5 C 18.7101,207.794 17.7101,208.961 16.5,210C 23.8211,211.437 31.8211,212.271 40.5,212.5C 28.9599,214.571 17.6266,213.404 6.5,209C 10.7823,207.843 15.1157,207.01 19.5,206.5 Z"/></g>
<g><path style="opacity:1" fill="#314a79" d="M 307.5,207.5 C 315.131,208.536 322.797,208.536 330.5,207.5C 331.833,207.5 333.167,207.5 334.5,207.5C 335.323,209.455 335.49,211.455 335,213.5C 334.586,213.043 334.086,212.709 333.5,212.5C 331.289,213.66 329.289,214.993 327.5,216.5C 327.167,216.5 326.833,216.5 326.5,216.5C 325.761,216.631 325.094,216.464 324.5,216C 325.416,215.722 326.082,215.222 326.5,214.5C 325.848,213.275 324.681,212.608 323,212.5C 320.16,214.394 317.326,214.561 314.5,213C 315.833,212 317.167,211 318.5,210C 314.72,209.082 311.054,208.249 307.5,207.5 Z"/></g>
<g><path style="opacity:1" fill="#354c7f" d="M 307.5,207.5 C 311.054,208.249 314.72,209.082 318.5,210C 317.167,211 315.833,212 314.5,213C 317.326,214.561 320.16,214.394 323,212.5C 324.681,212.608 325.848,213.275 326.5,214.5C 324.217,214.608 322.217,215.441 320.5,217C 317.167,217.333 313.833,217.667 310.5,218C 309.244,218.417 308.577,219.25 308.5,220.5C 306.706,221.233 305.039,222.233 303.5,223.5C 303.5,222.167 303.5,220.833 303.5,219.5C 304.675,219.719 305.675,219.386 306.5,218.5C 304.955,217.548 303.288,217.215 301.5,217.5C 301.5,215.5 301.5,213.5 301.5,211.5C 303.017,211.511 304.184,212.177 305,213.5C 308.61,210.852 308.11,209.352 303.5,209C 304.701,208.097 305.535,206.931 306,205.5C 306.278,206.416 306.778,207.082 307.5,207.5 Z"/></g>
<g><path style="opacity:0.992" fill="#697696" d="M 334.5,207.5 C 335.117,207.611 335.617,207.944 336,208.5C 336.667,210.5 336.667,212.5 336,214.5C 333.313,215.713 330.48,216.38 327.5,216.5C 329.289,214.993 331.289,213.66 333.5,212.5C 334.086,212.709 334.586,213.043 335,213.5C 335.49,211.455 335.323,209.455 334.5,207.5 Z"/></g>
<g><path style="opacity:1" fill="#364d82" d="M 254.5,212.5 C 255.409,219.504 255.076,226.504 253.5,233.5C 252.883,233.611 252.383,233.944 252,234.5C 251.231,229.659 251.731,224.993 253.5,220.5C 251.856,220.286 250.356,220.62 249,221.5C 248.262,225.71 248.428,229.876 249.5,234C 248.991,235.169 248.158,236.002 247,236.5C 245.949,232.044 245.116,227.544 244.5,223C 246.592,219.684 248.259,216.184 249.5,212.5C 251.167,211.167 252.833,211.167 254.5,212.5 Z"/></g>
<g><path style="opacity:1" fill="#30497e" d="M 119.5,210.5 C 118.167,212.5 118.167,214.5 119.5,216.5C 121.308,217.918 121.975,219.918 121.5,222.5C 119.45,224.237 117.617,226.237 116,228.5C 115.439,226.275 114.439,224.275 113,222.5C 112.329,223.252 111.496,223.586 110.5,223.5C 109.5,223.5 108.5,223.5 107.5,223.5C 110.259,218.791 112.259,213.791 113.5,208.5C 110.839,206.839 110.839,205.172 113.5,203.5C 116.59,204.985 118.59,207.318 119.5,210.5 Z"/></g>
<g><path style="opacity:0.996" fill="#64718e" d="M 185.5,230.5 C 185.977,225.258 185.144,220.258 183,215.5C 182.107,214.919 181.107,214.585 180,214.5C 178.393,215.074 176.893,215.74 175.5,216.5C 176.108,214.01 177.775,212.676 180.5,212.5C 185.467,214.595 187.467,218.428 186.5,224C 186.496,226.361 186.163,228.527 185.5,230.5 Z"/></g>
<g><path style="opacity:1" fill="#5c6a8f" d="M 326.5,214.5 C 326.082,215.222 325.416,215.722 324.5,216C 325.094,216.464 325.761,216.631 326.5,216.5C 320.751,218.434 314.751,219.767 308.5,220.5C 308.577,219.25 309.244,218.417 310.5,218C 313.833,217.667 317.167,217.333 320.5,217C 322.217,215.441 324.217,214.608 326.5,214.5 Z"/></g>
<g><path style="opacity:0.994" fill="#475883" d="M 204.5,210.5 C 211.777,209.279 214.944,212.279 214,219.5C 211.158,225.668 206.825,227.002 201,223.5C 199.539,218.326 200.706,213.993 204.5,210.5 Z"/></g>
<g><path style="opacity:0.984" fill="#495b82" d="M 254.5,212.5 C 255.79,213.058 256.623,214.058 257,215.5C 258.072,222.734 257.239,229.734 254.5,236.5C 256.176,240.516 257.843,244.516 259.5,248.5C 256.011,247.119 254.178,244.452 254,240.5C 253.667,240.833 253.333,241.167 253,241.5C 253.083,238.881 253.25,236.214 253.5,233.5C 255.076,226.504 255.409,219.504 254.5,212.5 Z"/></g>
<g><path style="opacity:1" fill="#354d7d" d="M 287.5,214.5 C 286.879,218.008 284.879,220.508 281.5,222C 282.93,223.44 284.597,223.774 286.5,223C 287.56,221.702 288.726,220.535 290,219.5C 292.371,220.791 294.871,221.791 297.5,222.5C 298.489,224.586 299.822,226.253 301.5,227.5C 300.037,233.073 299.037,238.74 298.5,244.5C 297.778,244.918 297.278,245.584 297,246.5C 295.616,242.522 294.116,238.522 292.5,234.5C 291.893,234.624 291.56,234.957 291.5,235.5C 290.883,233.679 290.716,231.679 291,229.5C 289.936,232.799 289.102,236.132 288.5,239.5C 286.072,248.708 286.072,258.041 288.5,267.5C 288.263,270.924 287.596,274.257 286.5,277.5C 285.828,276.051 285.161,274.718 284.5,273.5C 284.5,268.5 284.5,263.5 284.5,258.5C 284.69,247.649 286.023,236.983 288.5,226.5C 289.043,226.44 289.376,226.107 289.5,225.5C 286.572,224.516 283.572,224.183 280.5,224.5C 278.767,223.992 278.434,223.159 279.5,222C 278.207,221.51 276.873,221.343 275.5,221.5C 275.561,219.408 276.561,217.908 278.5,217C 281.418,215.85 284.418,215.017 287.5,214.5 Z"/></g>
<g><path style="opacity:0.999" fill="#465883" d="M 291.5,204.5 C 292.109,207.626 291.109,210.126 288.5,212C 289.167,212.333 289.833,212.667 290.5,213C 289.584,213.278 288.918,213.778 288.5,214.5C 288.167,214.5 287.833,214.5 287.5,214.5C 284.418,215.017 281.418,215.85 278.5,217C 276.561,217.908 275.561,219.408 275.5,221.5C 276.873,221.343 278.207,221.51 279.5,222C 278.434,223.159 278.767,223.992 280.5,224.5C 279.449,225.222 278.782,226.222 278.5,227.5C 269.286,231.119 266.786,228.453 271,219.5C 275.751,216.541 280.584,213.707 285.5,211C 287.734,208.937 289.734,206.771 291.5,204.5 Z"/></g>
<g><path style="opacity:0.999" fill="#30497c" d="M 185.5,230.5 C 185.5,230.833 185.5,231.167 185.5,231.5C 184.351,231.791 183.684,232.624 183.5,234C 183.406,239.292 181.739,243.959 178.5,248C 177.552,248.483 176.552,248.649 175.5,248.5C 175.5,246.5 175.5,244.5 175.5,242.5C 175.826,238.116 175.492,233.783 174.5,229.5C 172.889,230.32 172.222,231.654 172.5,233.5C 168.241,233.102 166.408,235.102 167,239.5C 166.654,237.782 166.154,236.115 165.5,234.5C 166.309,232.929 166.643,231.262 166.5,229.5C 168.963,229.219 171.13,228.219 173,226.5C 173.533,223.071 174.367,219.738 175.5,216.5C 176.893,215.74 178.393,215.074 180,214.5C 181.107,214.585 182.107,214.919 183,215.5C 185.144,220.258 185.977,225.258 185.5,230.5 Z"/></g>
<g><path style="opacity:1" fill="#314a7d" d="M 445.5,223.5 C 445.833,223.5 446.167,223.5 446.5,223.5C 446.181,228.363 446.514,233.03 447.5,237.5C 448.5,237.167 449.167,236.5 449.5,235.5C 451.335,234.878 452.502,233.544 453,231.5C 455.164,233.811 456.164,236.478 456,239.5C 455.667,238.833 455.333,238.167 455,237.5C 453.936,241.346 452.436,245.012 450.5,248.5C 449.833,248.167 449.167,247.833 448.5,247.5C 447.686,245.234 447.186,242.9 447,240.5C 446.788,251.194 446.288,261.86 445.5,272.5C 445.824,274.569 446.658,274.902 448,273.5C 448.229,276.735 448.396,279.735 448.5,282.5C 448.833,284.5 449.167,286.5 449.5,288.5C 450.833,288.5 452.167,288.5 453.5,288.5C 453.64,290.124 452.973,291.29 451.5,292C 452.756,292.417 453.423,293.25 453.5,294.5C 452.167,294.5 450.833,294.5 449.5,294.5C 445.774,293.047 443.441,290.381 442.5,286.5C 442.414,285.504 442.748,284.671 443.5,284C 441.002,281.815 441.002,279.482 443.5,277C 442.144,275.433 441.477,273.6 441.5,271.5C 443.341,266.457 444.674,261.124 445.5,255.5C 445.5,244.833 445.5,234.167 445.5,223.5 Z"/></g>
<g><path style="opacity:1" fill="#506188" d="M 462.5,208.5 C 462.662,210.527 462.495,212.527 462,214.5C 460.265,216.354 459.098,218.521 458.5,221C 460.189,222.863 461.522,225.03 462.5,227.5C 464.036,221.993 466.036,216.66 468.5,211.5C 469.357,210.575 470.357,209.908 471.5,209.5C 468.619,218.254 464.953,226.587 460.5,234.5C 460.101,230.597 458.935,226.93 457,223.5C 456.583,224.756 455.75,225.423 454.5,225.5C 456.93,219.643 459.597,213.977 462.5,208.5 Z"/></g>
<g><path style="opacity:0.986" fill="#717e9e" d="M 280.5,224.5 C 283.572,224.183 286.572,224.516 289.5,225.5C 289.376,226.107 289.043,226.44 288.5,226.5C 287.903,225.861 287.07,225.528 286,225.5C 283.456,226.071 280.956,226.738 278.5,227.5C 278.782,226.222 279.449,225.222 280.5,224.5 Z"/></g>
<g><path style="opacity:1" fill="#455882" d="M 149.5,247.5 C 148.387,248.946 148.22,250.613 149,252.5C 149.717,251.956 150.217,251.289 150.5,250.5C 150.738,248.596 151.738,247.262 153.5,246.5C 153.461,249.321 152.795,251.988 151.5,254.5C 148.018,253.965 146.351,251.965 146.5,248.5C 147.167,246.833 147.833,245.167 148.5,243.5C 149.898,242.223 150.564,240.557 150.5,238.5C 148.432,235.794 147.099,232.794 146.5,229.5C 147.039,227.495 147.705,225.495 148.5,223.5C 149.216,225.482 150.383,227.149 152,228.5C 152.333,228.167 152.667,227.833 153,227.5C 154.973,216.492 154.973,205.492 153,194.5C 152.612,193.572 151.945,192.905 151,192.5C 148.974,193.52 147.641,195.187 147,197.5C 146.503,194.854 146.336,192.187 146.5,189.5C 144.901,189.232 143.568,189.566 142.5,190.5C 141.609,189.89 140.609,189.557 139.5,189.5C 148.392,185.767 153.892,188.767 156,198.5C 157.507,215.435 155.34,231.769 149.5,247.5 Z"/></g>
<g><path style="opacity:1" fill="#455984" d="M 129.5,214.5 C 122.153,223.86 115.82,233.86 110.5,244.5C 110.795,242.265 110.461,240.265 109.5,238.5C 110.73,236.703 111.396,234.703 111.5,232.5C 114.205,232.62 114.872,231.62 113.5,229.5C 111.955,228.548 110.288,228.215 108.5,228.5C 108.365,226.446 109.032,224.779 110.5,223.5C 111.496,223.586 112.329,223.252 113,222.5C 114.439,224.275 115.439,226.275 116,228.5C 117.617,226.237 119.45,224.237 121.5,222.5C 122.161,221.282 122.828,219.949 123.5,218.5C 126.461,217.817 126.795,216.984 124.5,216C 125.905,214.731 127.571,214.231 129.5,214.5 Z"/></g>
<g><path style="opacity:0.231" fill="#aab3d1" d="M 338.5,222.5 C 339.75,222.577 340.583,223.244 341,224.5C 341.497,226.81 341.663,229.143 341.5,231.5C 341.167,231.5 340.833,231.5 340.5,231.5C 340.5,230.833 340.5,230.167 340.5,229.5C 340.606,226.921 339.939,224.588 338.5,222.5 Z"/></g>
<g><path style="opacity:1" fill="#31497d" d="M 445.5,223.5 C 445.5,234.167 445.5,244.833 445.5,255.5C 444.883,255.389 444.383,255.056 444,254.5C 443.832,244.151 443.332,233.817 442.5,223.5C 441.808,224.025 441.308,224.692 441,225.5C 441.414,240.849 441.581,256.183 441.5,271.5C 440.504,271.586 439.671,271.252 439,270.5C 436.564,254.925 435.898,239.258 437,223.5C 438.847,220.764 440.014,217.764 440.5,214.5C 442.412,213.02 443.579,211.02 444,208.5C 445.05,213.448 445.55,218.448 445.5,223.5 Z"/></g>
<g><path style="opacity:1" fill="#2f497d" d="M 107.5,223.5 C 108.5,223.5 109.5,223.5 110.5,223.5C 109.032,224.779 108.365,226.446 108.5,228.5C 110.288,228.215 111.955,228.548 113.5,229.5C 114.872,231.62 114.205,232.62 111.5,232.5C 111.396,234.703 110.73,236.703 109.5,238.5C 107.864,237.754 106.197,238.088 104.5,239.5C 104.726,236.551 104.726,233.551 104.5,230.5C 103.232,233.649 100.898,235.649 97.5,236.5C 96.5344,234.604 96.2011,232.604 96.5,230.5C 97.8333,230.5 99.1667,230.5 100.5,230.5C 100.26,227.421 100.593,224.421 101.5,221.5C 102,221.167 102.5,220.833 103,220.5C 104.123,222.1 105.623,223.1 107.5,223.5 Z"/></g>
<g><path style="opacity:1" fill="#30497e" d="M 340.5,229.5 C 340.5,230.167 340.5,230.833 340.5,231.5C 339.969,234.888 341.303,236.888 344.5,237.5C 342.545,239.668 341.879,242.002 342.5,244.5C 340.167,244.5 337.833,244.5 335.5,244.5C 334.893,247.076 333.726,249.409 332,251.5C 331.333,249.167 331.333,246.833 332,244.5C 334.307,241.577 336.473,238.577 338.5,235.5C 338.113,234.28 337.28,233.613 336,233.5C 334.252,235.1 333.085,237.1 332.5,239.5C 331.914,239.291 331.414,238.957 331,238.5C 330.333,236.5 330.333,234.5 331,232.5C 332.665,229.752 334.332,227.086 336,224.5C 337.713,225.137 337.879,226.137 336.5,227.5C 337.766,228.362 339.099,229.029 340.5,229.5 Z"/></g>
<g><path style="opacity:0.988" fill="#636e8e" d="M 410.5,229.5 C 406.019,229.425 401.686,230.092 397.5,231.5C 401.548,228.62 405.881,227.954 410.5,229.5 Z"/></g>
<g><path style="opacity:1" fill="#32497f" d="M 460.5,234.5 C 460.5,234.833 460.5,235.167 460.5,235.5C 459.5,235.5 458.5,235.5 457.5,235.5C 455.555,232.515 454.555,229.182 454.5,225.5C 455.75,225.423 456.583,224.756 457,223.5C 458.935,226.93 460.101,230.597 460.5,234.5 Z"/></g>
<g><path style="opacity:0.231" fill="#b1bed3" d="M 448.5,222.5 C 448.182,227.032 448.515,231.366 449.5,235.5C 449.167,236.5 448.5,237.167 447.5,237.5C 447.179,232.305 447.513,227.305 448.5,222.5 Z"/></g>
<g><path style="opacity:1" fill="#3d5480" d="M 298.5,244.5 C 298.5,246.833 298.5,249.167 298.5,251.5C 297.906,261.582 297.906,271.582 298.5,281.5C 301.594,280.787 304.594,279.787 307.5,278.5C 306.578,280.816 304.911,282.483 302.5,283.5C 300.799,283.966 299.299,283.966 298,283.5C 297.121,280.182 296.287,276.848 295.5,273.5C 294.914,273.291 294.414,272.957 294,272.5C 293.468,275.264 292.634,277.93 291.5,280.5C 292.447,282.059 293.113,283.726 293.5,285.5C 293.253,286.713 292.586,287.38 291.5,287.5C 290.566,286.228 289.899,284.728 289.5,283C 290.13,279.223 290.13,275.39 289.5,271.5C 290.5,271.5 291.5,271.5 292.5,271.5C 294.03,259.432 293.697,247.432 291.5,235.5C 291.56,234.957 291.893,234.624 292.5,234.5C 294.116,238.522 295.616,242.522 297,246.5C 297.278,245.584 297.778,244.918 298.5,244.5 Z"/></g>
<g><path style="opacity:1" fill="#384f7d" d="M 107.5,207.5 C 106.76,211.641 105.76,215.641 104.5,219.5C 105.5,219.5 106.5,219.5 107.5,219.5C 106.911,214.161 108.911,210.494 113.5,208.5C 112.259,213.791 110.259,218.791 107.5,223.5C 105.623,223.1 104.123,222.1 103,220.5C 102.5,220.833 102,221.167 101.5,221.5C 100.593,224.421 100.26,227.421 100.5,230.5C 99.1667,230.5 97.8333,230.5 96.5,230.5C 96.2011,232.604 96.5344,234.604 97.5,236.5C 100.898,235.649 103.232,233.649 104.5,230.5C 104.726,233.551 104.726,236.551 104.5,239.5C 106.197,238.088 107.864,237.754 109.5,238.5C 110.461,240.265 110.795,242.265 110.5,244.5C 110.25,246.674 109.25,248.341 107.5,249.5C 107.799,247.396 107.466,245.396 106.5,243.5C 104.244,244.421 103.244,246.088 103.5,248.5C 102.325,248.719 101.325,248.386 100.5,247.5C 101.785,244.979 102.452,242.313 102.5,239.5C 101.022,239.238 99.6888,239.571 98.5,240.5C 97.9851,242.225 97.3184,243.892 96.5,245.5C 95.5224,245.023 94.6891,244.357 94,243.5C 93.6667,245.833 93.3333,248.167 93,250.5C 92.3848,248.884 91.3848,247.551 90,246.5C 88.3057,249.68 86.139,252.347 83.5,254.5C 90.4586,240.917 97.1252,227.251 103.5,213.5C 105.69,212.025 107.023,210.025 107.5,207.5 Z"/></g>
<g><path style="opacity:0.784" fill="#95a0ba" d="M 161.5,235.5 C 161.573,237.027 160.906,238.027 159.5,238.5C 159.427,236.973 160.094,235.973 161.5,235.5 Z"/></g>
<g><path style="opacity:0.992" fill="#606e90" d="M 303.5,223.5 C 302.064,233.002 300.397,242.335 298.5,251.5C 298.5,249.167 298.5,246.833 298.5,244.5C 299.037,238.74 300.037,233.073 301.5,227.5C 301.157,225.517 301.824,224.183 303.5,223.5 Z"/></g>
<g><path style="opacity:1" fill="#30497f" d="M 353.5,255.5 C 352.833,255.5 352.5,255.833 352.5,256.5C 350.871,252.888 348.538,249.888 345.5,247.5C 344.728,246.306 343.728,245.306 342.5,244.5C 341.879,242.002 342.545,239.668 344.5,237.5C 345.939,236.491 347.272,236.824 348.5,238.5C 349.041,240.714 349.374,242.88 349.5,245C 349.833,245.167 350.167,245.333 350.5,245.5C 351.251,244.624 351.751,243.624 352,242.5C 352.471,244.246 353.138,245.913 354,247.5C 355.587,246.273 356.921,246.606 358,248.5C 358.667,250.833 358.667,253.167 358,255.5C 357.846,252.475 356.346,250.809 353.5,250.5C 353.5,252.167 353.5,253.833 353.5,255.5 Z"/></g>
<g><path style="opacity:1" fill="#344b7d" d="M 410.5,229.5 C 410.833,229.5 411.167,229.5 411.5,229.5C 411.5,231.167 411.5,232.833 411.5,234.5C 408.575,234.46 405.909,235.293 403.5,237C 404.308,237.308 404.975,237.808 405.5,238.5C 403.833,239.167 402.167,239.833 400.5,240.5C 400.135,241.902 399.301,242.902 398,243.5C 395.22,243.947 392.386,243.947 389.5,243.5C 389.5,241.5 389.5,239.5 389.5,237.5C 391.443,234.529 394.109,232.529 397.5,231.5C 401.686,230.092 406.019,229.425 410.5,229.5 Z"/></g>
<g><path style="opacity:1" fill="#435783" d="M 175.5,216.5 C 174.367,219.738 173.533,223.071 173,226.5C 171.13,228.219 168.963,229.219 166.5,229.5C 166.643,231.262 166.309,232.929 165.5,234.5C 166.154,236.115 166.654,237.782 167,239.5C 166.408,235.102 168.241,233.102 172.5,233.5C 172.222,231.654 172.889,230.32 174.5,229.5C 175.492,233.783 175.826,238.116 175.5,242.5C 175.167,242.5 174.833,242.5 174.5,242.5C 174.664,239.813 174.497,237.146 174,234.5C 168.39,242.745 162.557,250.745 156.5,258.5C 156.917,255.921 156.25,253.754 154.5,252C 155.872,251.369 157.205,250.702 158.5,250C 157.852,248.56 157.519,247.06 157.5,245.5C 156.041,245.433 154.708,245.766 153.5,246.5C 155.122,243.545 157.122,240.878 159.5,238.5C 160.906,238.027 161.573,237.027 161.5,235.5C 165.446,228.595 170.113,222.262 175.5,216.5 Z"/></g>
<g><path style="opacity:1" fill="#516289" d="M 202.5,276.5 C 201.508,276.672 200.842,276.338 200.5,275.5C 199.553,273.266 198.886,270.932 198.5,268.5C 201.39,260.839 202.89,252.839 203,244.5C 203.763,247.063 204.263,247.063 204.5,244.5C 203.777,242.218 203.443,239.884 203.5,237.5C 200.412,237.639 197.745,238.639 195.5,240.5C 195.715,242.179 195.048,243.179 193.5,243.5C 195.855,235.72 200.689,233.387 208,236.5C 208.667,238.5 208.667,240.5 208,242.5C 206.333,248.167 204.667,253.833 203,259.5C 202.501,265.157 202.334,270.824 202.5,276.5 Z"/></g>
<g><path style="opacity:1" fill="#30497f" d="M 291.5,235.5 C 293.697,247.432 294.03,259.432 292.5,271.5C 291.5,271.5 290.5,271.5 289.5,271.5C 289.61,260.815 289.277,250.148 288.5,239.5C 289.102,236.132 289.936,232.799 291,229.5C 290.716,231.679 290.883,233.679 291.5,235.5 Z"/></g>
<g><path style="opacity:1" fill="#415480" d="M 340.5,231.5 C 340.833,231.5 341.167,231.5 341.5,231.5C 345.382,233.934 349.048,236.601 352.5,239.5C 353.068,243.067 355.068,245.401 358.5,246.5C 359.972,254.876 359.306,263.209 356.5,271.5C 356.167,271.5 355.833,271.5 355.5,271.5C 355.331,267.343 355.998,263.343 357.5,259.5C 357.821,256.488 356.488,255.155 353.5,255.5C 353.5,253.833 353.5,252.167 353.5,250.5C 356.346,250.809 357.846,252.475 358,255.5C 358.667,253.167 358.667,250.833 358,248.5C 356.921,246.606 355.587,246.273 354,247.5C 353.138,245.913 352.471,244.246 352,242.5C 351.751,243.624 351.251,244.624 350.5,245.5C 350.167,245.333 349.833,245.167 349.5,245C 349.374,242.88 349.041,240.714 348.5,238.5C 347.272,236.824 345.939,236.491 344.5,237.5C 341.303,236.888 339.969,234.888 340.5,231.5 Z"/></g>
<g><path style="opacity:1" fill="#3c527f" d="M 141.5,202.5 C 142.348,201.375 143.348,201.375 144.5,202.5C 144.918,203.222 145.584,203.722 146.5,204C 145.289,205.113 145.289,206.28 146.5,207.5C 145.868,214.143 145.202,220.809 144.5,227.5C 143.808,226.975 143.308,226.308 143,225.5C 142.833,226.833 142.667,228.167 142.5,229.5C 143.885,241.263 145.218,241.263 146.5,229.5C 147.099,232.794 148.432,235.794 150.5,238.5C 150.564,240.557 149.898,242.223 148.5,243.5C 148.728,241.645 148.061,240.812 146.5,241C 146.012,243.176 145.012,245.009 143.5,246.5C 142.453,245.078 142.453,243.578 143.5,242C 142.287,240.37 141.454,238.536 141,236.5C 140.34,239.047 140.507,241.547 141.5,244C 140.228,246.856 139.894,249.689 140.5,252.5C 138.807,256.322 137.473,255.989 136.5,251.5C 135.828,252.949 135.161,254.282 134.5,255.5C 137.17,241.816 140.004,228.149 143,214.5C 143.667,210.833 143.667,207.167 143,203.5C 142.617,202.944 142.117,202.611 141.5,202.5 Z"/></g>
<g><path style="opacity:1" fill="#5d6b8a" d="M 352.5,239.5 C 355.661,240.812 357.661,243.145 358.5,246.5C 355.068,245.401 353.068,243.067 352.5,239.5 Z"/></g>
<g><path style="opacity:1" fill="#4c5e87" d="M 411.5,229.5 C 413.238,231.119 413.738,233.119 413,235.5C 400.924,242.075 391.757,251.408 385.5,263.5C 385.34,261.801 385.506,260.134 386,258.5C 388.35,255.122 390.517,251.622 392.5,248C 390.192,245.184 387.192,244.017 383.5,244.5C 384.757,241.573 386.757,239.239 389.5,237.5C 389.5,239.5 389.5,241.5 389.5,243.5C 392.386,243.947 395.22,243.947 398,243.5C 399.301,242.902 400.135,241.902 400.5,240.5C 402.167,239.833 403.833,239.167 405.5,238.5C 404.975,237.808 404.308,237.308 403.5,237C 405.909,235.293 408.575,234.46 411.5,234.5C 411.5,232.833 411.5,231.167 411.5,229.5 Z"/></g>
<g><path style="opacity:0.999" fill="#384f80" d="M 249.5,212.5 C 248.259,216.184 246.592,219.684 244.5,223C 245.116,227.544 245.949,232.044 247,236.5C 248.158,236.002 248.991,235.169 249.5,234C 248.428,229.876 248.262,225.71 249,221.5C 250.356,220.62 251.856,220.286 253.5,220.5C 251.731,224.993 251.231,229.659 252,234.5C 252.383,233.944 252.883,233.611 253.5,233.5C 253.25,236.214 253.083,238.881 253,241.5C 253.333,241.167 253.667,240.833 254,240.5C 254.178,244.452 256.011,247.119 259.5,248.5C 260.906,248.973 261.573,249.973 261.5,251.5C 262.058,255.011 262.724,258.511 263.5,262C 263.29,265.057 261.957,267.557 259.5,269.5C 258.772,266.788 257.939,264.121 257,261.5C 254.772,259.275 252.939,256.775 251.5,254C 253.604,252.164 253.938,249.998 252.5,247.5C 251.914,247.709 251.414,248.043 251,248.5C 250.082,242.28 248.249,241.946 245.5,247.5C 244.537,250.744 243.204,253.744 241.5,256.5C 240.549,254.882 239.216,253.549 237.5,252.5C 238.325,251.614 239.325,251.281 240.5,251.5C 240.5,248.5 240.5,245.5 240.5,242.5C 238.515,233.408 239.682,224.742 244,216.5C 245.451,214.536 247.284,213.203 249.5,212.5 Z"/></g>
<g><path style="opacity:0.122" fill="#abbfdd" d="M 149.5,247.5 C 149.263,248.791 149.596,249.791 150.5,250.5C 150.217,251.289 149.717,251.956 149,252.5C 148.22,250.613 148.387,248.946 149.5,247.5 Z"/></g>
<g><path style="opacity:1" fill="#374e7f" d="M 200.5,275.5 C 199.834,278.028 199.168,280.694 198.5,283.5C 196.97,281.774 195.97,279.774 195.5,277.5C 198.188,269.495 197.521,261.662 193.5,254C 195.258,251.733 195.758,249.233 195,246.5C 194.586,246.957 194.086,247.291 193.5,247.5C 193.167,249.5 192.833,251.5 192.5,253.5C 193.689,262.201 193.689,270.868 192.5,279.5C 191.833,279.5 191.167,279.5 190.5,279.5C 187.719,267.104 188.719,255.104 193.5,243.5C 195.048,243.179 195.715,242.179 195.5,240.5C 197.745,238.639 200.412,237.639 203.5,237.5C 203.443,239.884 203.777,242.218 204.5,244.5C 204.263,247.063 203.763,247.063 203,244.5C 202.89,252.839 201.39,260.839 198.5,268.5C 198.886,270.932 199.553,273.266 200.5,275.5 Z"/></g>
<g><path style="opacity:1" fill="#415681" d="M 338.5,222.5 C 339.939,224.588 340.606,226.921 340.5,229.5C 339.099,229.029 337.766,228.362 336.5,227.5C 337.879,226.137 337.713,225.137 336,224.5C 334.332,227.086 332.665,229.752 331,232.5C 330.333,234.5 330.333,236.5 331,238.5C 331.414,238.957 331.914,239.291 332.5,239.5C 333.085,237.1 334.252,235.1 336,233.5C 337.28,233.613 338.113,234.28 338.5,235.5C 336.473,238.577 334.307,241.577 332,244.5C 331.333,246.833 331.333,249.167 332,251.5C 333.726,249.409 334.893,247.076 335.5,244.5C 337.833,244.5 340.167,244.5 342.5,244.5C 343.728,245.306 344.728,246.306 345.5,247.5C 345.443,248.609 345.11,249.609 344.5,250.5C 342.633,248.233 340.3,247.066 337.5,247C 335.006,254.021 331.672,260.521 327.5,266.5C 326.417,266.539 325.417,266.873 324.5,267.5C 324.167,267 323.833,266.5 323.5,266C 323.42,263.707 323.42,261.54 323.5,259.5C 325.855,255.449 327.688,251.116 329,246.5C 327.695,239.342 328.362,232.342 331,225.5C 332.959,222.587 335.459,221.587 338.5,222.5 Z"/></g>
<g><path style="opacity:1" fill="#304a7c" d="M 156.5,258.5 C 153.057,258.353 151.057,260.02 150.5,263.5C 149.476,264.853 148.143,265.52 146.5,265.5C 146.506,268.976 144.84,270.976 141.5,271.5C 140.861,270.903 140.528,270.07 140.5,269C 141.18,264.523 141.68,260.023 142,255.5C 143.146,252.874 144.646,250.541 146.5,248.5C 146.351,251.965 148.018,253.965 151.5,254.5C 152.795,251.988 153.461,249.321 153.5,246.5C 154.708,245.766 156.041,245.433 157.5,245.5C 157.519,247.06 157.852,248.56 158.5,250C 157.205,250.702 155.872,251.369 154.5,252C 156.25,253.754 156.917,255.921 156.5,258.5 Z"/></g>
<g><path style="opacity:1" fill="#3c5380" d="M 345.5,247.5 C 348.538,249.888 350.871,252.888 352.5,256.5C 352.721,257.735 353.388,258.735 354.5,259.5C 353.926,261.059 353.26,262.559 352.5,264C 352.546,269.458 352.712,274.958 353,280.5C 352.667,280.833 352.333,281.167 352,281.5C 350.135,276.547 349.469,271.547 350,266.5C 349.107,265.289 348.274,265.289 347.5,266.5C 346.448,273.801 346.448,281.134 347.5,288.5C 346.71,287.391 346.21,286.058 346,284.5C 345.812,273.091 345.312,261.758 344.5,250.5C 345.11,249.609 345.443,248.609 345.5,247.5 Z"/></g>
<g><path style="opacity:1" fill="#334a7e" d="M 383.5,244.5 C 387.192,244.017 390.192,245.184 392.5,248C 390.517,251.622 388.35,255.122 386,258.5C 385.506,260.134 385.34,261.801 385.5,263.5C 385.5,263.833 385.5,264.167 385.5,264.5C 384.153,265.171 382.986,265.171 382,264.5C 381.667,261.833 381.333,259.167 381,256.5C 380.333,255.167 379.667,255.167 379,256.5C 378.51,255.207 378.343,253.873 378.5,252.5C 379.383,249.296 381.05,246.629 383.5,244.5 Z"/></g>
<g><path style="opacity:1" fill="#2f4a7b" d="M 445.5,255.5 C 444.674,261.124 443.341,266.457 441.5,271.5C 441.581,256.183 441.414,240.849 441,225.5C 441.308,224.692 441.808,224.025 442.5,223.5C 443.332,233.817 443.832,244.151 444,254.5C 444.383,255.056 444.883,255.389 445.5,255.5 Z"/></g>
<g><path style="opacity:1" fill="#31497d" d="M 148.5,243.5 C 147.833,245.167 147.167,246.833 146.5,248.5C 144.646,250.541 143.146,252.874 142,255.5C 141.68,260.023 141.18,264.523 140.5,269C 140.528,270.07 140.861,270.903 141.5,271.5C 142.043,271.56 142.376,271.893 142.5,272.5C 141.667,272.833 140.833,273.167 140,273.5C 138.113,273.031 136.613,272.031 135.5,270.5C 134.507,265.88 134.173,261.214 134.5,256.5C 134.5,256.167 134.5,255.833 134.5,255.5C 135.161,254.282 135.828,252.949 136.5,251.5C 137.473,255.989 138.807,256.322 140.5,252.5C 139.894,249.689 140.228,246.856 141.5,244C 140.507,241.547 140.34,239.047 141,236.5C 141.454,238.536 142.287,240.37 143.5,242C 142.453,243.578 142.453,245.078 143.5,246.5C 145.012,245.009 146.012,243.176 146.5,241C 148.061,240.812 148.728,241.645 148.5,243.5 Z"/></g>
<g><path style="opacity:1" fill="#344c7e" d="M 107.5,249.5 C 103.076,260.233 97.0765,269.9 89.5,278.5C 87.0088,278.84 84.8421,279.84 83,281.5C 78.6344,280.955 76.8011,278.455 77.5,274C 78.3218,270.191 78.9885,266.358 79.5,262.5C 80.3257,259.515 81.659,256.849 83.5,254.5C 86.139,252.347 88.3057,249.68 90,246.5C 91.3848,247.551 92.3848,248.884 93,250.5C 93.3333,248.167 93.6667,245.833 94,243.5C 94.6891,244.357 95.5224,245.023 96.5,245.5C 97.3184,243.892 97.9851,242.225 98.5,240.5C 99.6888,239.571 101.022,239.238 102.5,239.5C 102.452,242.313 101.785,244.979 100.5,247.5C 101.325,248.386 102.325,248.719 103.5,248.5C 103.244,246.088 104.244,244.421 106.5,243.5C 107.466,245.396 107.799,247.396 107.5,249.5 Z"/></g>
<g><path style="opacity:0.988" fill="#637490" d="M 489.5,257.5 C 491.881,259.524 492.048,261.857 490,264.5C 487.637,268.345 485.137,272.011 482.5,275.5C 483.027,272.769 483.86,270.102 485,267.5C 485.637,265.697 486.803,264.364 488.5,263.5C 489.466,261.604 489.799,259.604 489.5,257.5 Z"/></g>
<g><path style="opacity:0.725" fill="#7a88a8" d="M 284.5,258.5 C 284.5,263.5 284.5,268.5 284.5,273.5C 284.158,274.338 283.492,274.672 282.5,274.5C 283.123,269.065 283.79,263.732 284.5,258.5 Z"/></g>
<g><path style="opacity:1" fill="#324a7b" d="M 180.5,268.5 C 180.5,274.833 180.5,281.167 180.5,287.5C 180.085,293.269 181.085,298.769 183.5,304C 183.182,306.375 181.849,307.542 179.5,307.5C 179.923,306.735 180.257,305.902 180.5,305C 177.709,300.818 176.709,296.318 177.5,291.5C 177.062,290.494 176.396,290.494 175.5,291.5C 174.613,286.195 173.947,280.862 173.5,275.5C 174.372,267.19 174.705,258.857 174.5,250.5C 175.822,250.33 176.989,250.663 178,251.5C 178.725,249.842 179.892,249.342 181.5,250C 180.524,256.076 180.19,262.242 180.5,268.5 Z"/></g>
<g><path style="opacity:1" fill="#52638b" d="M 415.5,252.5 C 415.5,252.167 415.5,251.833 415.5,251.5C 415.967,248.62 415.134,246.287 413,244.5C 409.908,246.684 408.408,249.684 408.5,253.5C 407.448,253.351 406.448,253.517 405.5,254C 408.304,256.601 407.971,258.101 404.5,258.5C 403.353,261.5 403.187,264.5 404,267.5C 403.612,266.572 402.945,265.905 402,265.5C 396.764,270.687 397.597,272.687 404.5,271.5C 404.808,275.36 405.475,279.026 406.5,282.5C 406.5,284.5 406.5,286.5 406.5,288.5C 404.214,283.539 403.047,278.206 403,272.5C 398.983,280.349 393.15,286.349 385.5,290.5C 385.525,287.821 386.858,286.488 389.5,286.5C 389.5,285.5 389.5,284.5 389.5,283.5C 390.833,283.5 392.167,283.5 393.5,283.5C 393.617,281.516 392.95,279.85 391.5,278.5C 389.879,280.624 388.046,282.624 386,284.5C 385.395,282.519 384.395,282.185 383,283.5C 382.51,282.207 382.343,280.873 382.5,279.5C 383.473,280.984 384.807,281.484 386.5,281C 388.667,278.833 390.833,276.667 393,274.5C 398.96,264.081 404.793,253.581 410.5,243C 412.769,242.242 414.936,242.409 417,243.5C 417.781,246.817 417.281,249.817 415.5,252.5 Z"/></g>
<g><path style="opacity:1" fill="#54658c" d="M 240.5,242.5 C 240.5,245.5 240.5,248.5 240.5,251.5C 239.325,251.281 238.325,251.614 237.5,252.5C 239.216,253.549 240.549,254.882 241.5,256.5C 236.801,267.536 229.801,276.869 220.5,284.5C 220.5,283.167 220.5,281.833 220.5,280.5C 221.752,279.032 223.752,278.032 226.5,277.5C 228.896,270.672 227.563,269.339 222.5,273.5C 224.122,270.545 226.122,267.878 228.5,265.5C 233.299,258.235 237.299,250.568 240.5,242.5 Z"/></g>
<g><path style="opacity:1" fill="#30487c" d="M 228.5,265.5 C 230.09,263.576 231.924,263.243 234,264.5C 233.848,266.519 233.348,268.519 232.5,270.5C 231.167,270.5 229.833,270.5 228.5,270.5C 228.5,268.833 228.5,267.167 228.5,265.5 Z"/></g>
<g><path style="opacity:1" fill="#354c7f" d="M 288.5,239.5 C 289.277,250.148 289.61,260.815 289.5,271.5C 290.13,275.39 290.13,279.223 289.5,283C 289.899,284.728 290.566,286.228 291.5,287.5C 291.167,288.167 290.833,288.833 290.5,289.5C 289.5,289.5 288.5,289.5 287.5,289.5C 286.069,288.22 285.402,286.553 285.5,284.5C 285.611,283.883 285.944,283.383 286.5,283C 285.062,282.781 283.729,282.281 282.5,281.5C 281.71,279.384 281.71,277.051 282.5,274.5C 283.492,274.672 284.158,274.338 284.5,273.5C 285.161,274.718 285.828,276.051 286.5,277.5C 287.596,274.257 288.263,270.924 288.5,267.5C 286.072,258.041 286.072,248.708 288.5,239.5 Z"/></g>
<g><path style="opacity:1" fill="#58688b" d="M 134.5,256.5 C 134.173,261.214 134.507,265.88 135.5,270.5C 136.613,272.031 138.113,273.031 140,273.5C 140.833,273.167 141.667,272.833 142.5,272.5C 142.376,271.893 142.043,271.56 141.5,271.5C 144.84,270.976 146.506,268.976 146.5,265.5C 148.143,265.52 149.476,264.853 150.5,263.5C 151.057,260.02 153.057,258.353 156.5,258.5C 152.2,265.967 146.366,271.967 139,276.5C 135.653,275.82 133.653,273.82 133,270.5C 132.693,265.635 133.193,260.969 134.5,256.5 Z"/></g>
<g><path style="opacity:1" fill="#4f5f82" d="M 79.5,262.5 C 78.9885,266.358 78.3218,270.191 77.5,274C 76.8011,278.455 78.6344,280.955 83,281.5C 84.8421,279.84 87.0088,278.84 89.5,278.5C 85.9138,284.43 81.4138,285.43 76,281.5C 73.92,274.572 75.0866,268.239 79.5,262.5 Z"/></g>
<g><path style="opacity:1" fill="#30497d" d="M 415.5,251.5 C 414.25,251.423 413.417,250.756 413,249.5C 410.795,260.379 409.961,271.379 410.5,282.5C 409.167,282.5 407.833,282.5 406.5,282.5C 405.475,279.026 404.808,275.36 404.5,271.5C 397.597,272.687 396.764,270.687 402,265.5C 402.945,265.905 403.612,266.572 404,267.5C 403.187,264.5 403.353,261.5 404.5,258.5C 407.971,258.101 408.304,256.601 405.5,254C 406.448,253.517 407.448,253.351 408.5,253.5C 408.408,249.684 409.908,246.684 413,244.5C 415.134,246.287 415.967,248.62 415.5,251.5 Z"/></g>
<g><path style="opacity:1" fill="#415681" d="M 261.5,251.5 C 268.942,262.202 270.609,273.702 266.5,286C 269.771,285.274 272.771,283.774 275.5,281.5C 275.475,284.179 274.142,285.512 271.5,285.5C 271.5,286.833 271.5,288.167 271.5,289.5C 269.784,289.371 268.117,289.038 266.5,288.5C 266.155,285.626 264.655,283.626 262,282.5C 261.74,278.576 260.74,274.909 259,271.5C 258.251,276.489 257.585,281.489 257,286.5C 256.667,286.167 256.333,285.833 256,285.5C 255.184,286.823 254.017,287.489 252.5,287.5C 257.281,279.054 257.447,270.388 253,261.5C 251.249,256.326 248.749,251.659 245.5,247.5C 248.249,241.946 250.082,242.28 251,248.5C 251.414,248.043 251.914,247.709 252.5,247.5C 253.938,249.998 253.604,252.164 251.5,254C 252.939,256.775 254.772,259.275 257,261.5C 257.939,264.121 258.772,266.788 259.5,269.5C 261.957,267.557 263.29,265.057 263.5,262C 262.724,258.511 262.058,255.011 261.5,251.5 Z"/></g>
<g><path style="opacity:0.929" fill="#77849f" d="M 313.5,272.5 C 312.5,275.5 310.5,277.5 307.5,278.5C 309.167,276.167 311.167,274.167 313.5,272.5 Z"/></g>
<g><path style="opacity:0.992" fill="#3a4f7f" d="M 220.5,284.5 C 218.801,284.66 217.134,284.494 215.5,284C 214.316,282.855 214.316,281.688 215.5,280.5C 217.5,277.833 219.833,275.5 222.5,273.5C 227.563,269.339 228.896,270.672 226.5,277.5C 223.752,278.032 221.752,279.032 220.5,280.5C 220.5,281.833 220.5,283.167 220.5,284.5 Z"/></g>
<g><path style="opacity:0.999" fill="#576791" d="M 282.5,274.5 C 281.71,277.051 281.71,279.384 282.5,281.5C 283.729,282.281 285.062,282.781 286.5,283C 285.944,283.383 285.611,283.883 285.5,284.5C 283.938,284.733 282.605,285.4 281.5,286.5C 281.146,284.459 281.146,282.626 281.5,281C 279.455,280.51 277.455,280.677 275.5,281.5C 277.5,278.833 279.833,276.5 282.5,274.5 Z"/></g>
<g><path style="opacity:1" fill="#364d7f" d="M 374.5,287.5 C 373.833,287.167 373.167,286.833 372.5,286.5C 371.778,286.082 371.278,285.416 371,284.5C 370.338,287.417 368.505,288.75 365.5,288.5C 366.167,286.5 366.833,284.5 367.5,282.5C 368.145,281.188 369.145,280.188 370.5,279.5C 371.167,275.687 371.834,272.021 372.5,268.5C 373.222,268.918 373.722,269.584 374,270.5C 374.026,266.892 374.859,263.558 376.5,260.5C 377.726,263.016 379.226,265.349 381,267.5C 381.167,268.667 381.333,269.833 381.5,271C 380.4,275.066 380.4,279.066 381.5,283C 379.213,284.427 378.88,286.261 380.5,288.5C 380.167,288.833 379.833,289.167 379.5,289.5C 377.925,288.544 376.258,287.877 374.5,287.5 Z"/></g>
<g><path style="opacity:1" fill="#495b84" d="M 454.5,225.5 C 454.555,229.182 455.555,232.515 457.5,235.5C 458.5,235.5 459.5,235.5 460.5,235.5C 456.495,241.685 452.662,248.018 449,254.5C 447.727,264.63 449.227,274.297 453.5,283.5C 451.883,282.962 450.216,282.629 448.5,282.5C 448.396,279.735 448.229,276.735 448,273.5C 446.658,274.902 445.824,274.569 445.5,272.5C 446.288,261.86 446.788,251.194 447,240.5C 447.186,242.9 447.686,245.234 448.5,247.5C 449.167,247.833 449.833,248.167 450.5,248.5C 452.436,245.012 453.936,241.346 455,237.5C 455.333,238.167 455.667,238.833 456,239.5C 456.164,236.478 455.164,233.811 453,231.5C 452.502,233.544 451.335,234.878 449.5,235.5C 450.659,231.849 452.326,228.515 454.5,225.5 Z"/></g>
<g><path style="opacity:1" fill="#334a7d" d="M 353.5,255.5 C 356.488,255.155 357.821,256.488 357.5,259.5C 355.998,263.343 355.331,267.343 355.5,271.5C 355.5,277.5 355.5,283.5 355.5,289.5C 358.85,289.335 362.183,289.502 365.5,290C 364.027,290.71 363.36,291.876 363.5,293.5C 362.791,294.404 361.791,294.737 360.5,294.5C 358.266,294.62 356.099,294.287 354,293.5C 352.075,291.461 349.908,289.795 347.5,288.5C 346.448,281.134 346.448,273.801 347.5,266.5C 348.274,265.289 349.107,265.289 350,266.5C 349.469,271.547 350.135,276.547 352,281.5C 352.333,281.167 352.667,280.833 353,280.5C 352.712,274.958 352.546,269.458 352.5,264C 353.26,262.559 353.926,261.059 354.5,259.5C 353.388,258.735 352.721,257.735 352.5,256.5C 352.5,255.833 352.833,255.5 353.5,255.5 Z"/></g>
<g><path style="opacity:0.976" fill="#606f8e" d="M 481.5,276.5 C 479.547,280.12 476.881,283.12 473.5,285.5C 474.199,283.005 475.199,280.672 476.5,278.5C 477.5,278.5 478.5,278.5 479.5,278.5C 479.131,276.007 479.797,275.34 481.5,276.5 Z"/></g>
<g><path style="opacity:1" fill="#5b688e" d="M 323.5,259.5 C 323.42,261.54 323.42,263.707 323.5,266C 323.833,266.5 324.167,267 324.5,267.5C 325.417,266.873 326.417,266.539 327.5,266.5C 323.383,276.28 317.05,284.28 308.5,290.5C 308.5,289.167 308.5,287.833 308.5,286.5C 309.752,285.032 311.752,284.032 314.5,283.5C 314.34,281.801 314.506,280.134 315,278.5C 316.06,278.254 317.227,278.254 318.5,278.5C 325.994,268.331 324.328,266.331 313.5,272.5C 317.087,268.308 320.42,263.975 323.5,259.5 Z"/></g>
<g><path style="opacity:1" fill="#31497c" d="M 266.5,288.5 C 264.236,287.781 261.903,287.448 259.5,287.5C 259.5,288.5 259.5,289.5 259.5,290.5C 257.35,290.095 255.35,289.595 253.5,289C 252.205,291.245 252.872,292.745 255.5,293.5C 255.414,294.496 255.748,295.329 256.5,296C 251.167,296.667 245.833,296.667 240.5,296C 237.278,295.65 234.612,294.316 232.5,292C 238.5,291.667 244.5,291.333 250.5,291C 251.305,289.887 251.972,288.721 252.5,287.5C 254.017,287.489 255.184,286.823 256,285.5C 256.333,285.833 256.667,286.167 257,286.5C 257.585,281.489 258.251,276.489 259,271.5C 260.74,274.909 261.74,278.576 262,282.5C 264.655,283.626 266.155,285.626 266.5,288.5 Z"/></g>
<g><path style="opacity:1" fill="#30497d" d="M 308.5,286.5 C 307.596,287.209 307.263,288.209 307.5,289.5C 304.833,289.5 302.167,289.5 299.5,289.5C 299.455,286.923 300.455,284.923 302.5,283.5C 304.911,282.483 306.578,280.816 307.5,278.5C 310.5,277.5 312.5,275.5 313.5,272.5C 324.328,266.331 325.994,268.331 318.5,278.5C 317.227,278.254 316.06,278.254 315,278.5C 314.506,280.134 314.34,281.801 314.5,283.5C 311.752,284.032 309.752,285.032 308.5,286.5 Z"/></g>
<g><path style="opacity:1" fill="#3e5280" d="M 378.5,252.5 C 378.343,253.873 378.51,255.207 379,256.5C 379.667,255.167 380.333,255.167 381,256.5C 381.333,259.167 381.667,261.833 382,264.5C 382.986,265.171 384.153,265.171 385.5,264.5C 384.038,269.395 383.038,274.395 382.5,279.5C 382.343,280.873 382.51,282.207 383,283.5C 384.395,282.185 385.395,282.519 386,284.5C 388.046,282.624 389.879,280.624 391.5,278.5C 392.95,279.85 393.617,281.516 393.5,283.5C 392.167,283.5 390.833,283.5 389.5,283.5C 389.5,284.5 389.5,285.5 389.5,286.5C 386.858,286.488 385.525,287.821 385.5,290.5C 381.024,292.482 377.357,291.482 374.5,287.5C 376.258,287.877 377.925,288.544 379.5,289.5C 379.833,289.167 380.167,288.833 380.5,288.5C 378.88,286.261 379.213,284.427 381.5,283C 380.4,279.066 380.4,275.066 381.5,271C 381.333,269.833 381.167,268.667 381,267.5C 379.226,265.349 377.726,263.016 376.5,260.5C 374.859,263.558 374.026,266.892 374,270.5C 373.722,269.584 373.222,268.918 372.5,268.5C 373.138,262.577 375.138,257.244 378.5,252.5 Z"/></g>
<g><path style="opacity:1" fill="#31497e" d="M 200.5,275.5 C 200.842,276.338 201.508,276.672 202.5,276.5C 202.5,277.167 202.5,277.833 202.5,278.5C 202.768,281.74 203.434,284.906 204.5,288C 204.333,289.5 203.5,290.333 202,290.5C 196.971,288.444 193.805,284.777 192.5,279.5C 193.689,270.868 193.689,262.201 192.5,253.5C 192.833,251.5 193.167,249.5 193.5,247.5C 194.086,247.291 194.586,246.957 195,246.5C 195.758,249.233 195.258,251.733 193.5,254C 197.521,261.662 198.188,269.495 195.5,277.5C 195.97,279.774 196.97,281.774 198.5,283.5C 199.168,280.694 199.834,278.028 200.5,275.5 Z"/></g>
<g><path style="opacity:1" fill="#455780" d="M 489.5,257.5 C 489.799,259.604 489.466,261.604 488.5,263.5C 486.803,264.364 485.637,265.697 485,267.5C 483.86,270.102 483.027,272.769 482.5,275.5C 482.5,276.167 482.167,276.5 481.5,276.5C 481.5,274.833 481.5,273.167 481.5,271.5C 477.774,271.784 475.608,273.784 475,277.5C 471.48,279.13 469.646,281.797 469.5,285.5C 464.519,286.332 459.519,286.498 454.5,286C 453.748,285.329 453.414,284.496 453.5,283.5C 457.735,285.944 461.735,285.444 465.5,282C 473.118,275.713 479.285,268.213 484,259.5C 485.637,257.394 487.47,256.728 489.5,257.5 Z"/></g>
<g><path style="opacity:1" fill="#30497c" d="M 302.5,283.5 C 300.455,284.923 299.455,286.923 299.5,289.5C 302.167,289.5 304.833,289.5 307.5,289.5C 307.263,288.209 307.596,287.209 308.5,286.5C 308.5,287.833 308.5,289.167 308.5,290.5C 306.076,290.192 303.743,290.526 301.5,291.5C 299.026,294.135 296.026,294.969 292.5,294C 291.733,292.53 291.067,291.03 290.5,289.5C 290.833,288.833 291.167,288.167 291.5,287.5C 292.586,287.38 293.253,286.713 293.5,285.5C 293.113,283.726 292.447,282.059 291.5,280.5C 292.634,277.93 293.468,275.264 294,272.5C 294.414,272.957 294.914,273.291 295.5,273.5C 296.287,276.848 297.121,280.182 298,283.5C 299.299,283.966 300.799,283.966 302.5,283.5 Z"/></g>
<g><path style="opacity:0.986" fill="#4f6187" d="M 202.5,278.5 C 203.337,280.859 204.837,282.859 207,284.5C 209.931,283.284 212.764,281.95 215.5,280.5C 214.316,281.688 214.316,282.855 215.5,284C 217.134,284.494 218.801,284.66 220.5,284.5C 216.037,289.598 210.37,292.598 203.5,293.5C 195.996,291.854 191.663,287.188 190.5,279.5C 191.167,279.5 191.833,279.5 192.5,279.5C 193.805,284.777 196.971,288.444 202,290.5C 203.5,290.333 204.333,289.5 204.5,288C 203.434,284.906 202.768,281.74 202.5,278.5 Z"/></g>
<g><path style="opacity:0.992" fill="#31497d" d="M 209.5,284.5 C 215.924,284.666 216.59,286.166 211.5,289C 208.741,289.977 206.741,289.144 205.5,286.5C 206.391,285.41 207.391,285.41 208.5,286.5C 209.298,286.043 209.631,285.376 209.5,284.5 Z"/></g>
<g><path style="opacity:1" fill="#586a8f" d="M 355.5,271.5 C 355.833,271.5 356.167,271.5 356.5,271.5C 356.173,276.544 356.506,281.544 357.5,286.5C 358.086,286.709 358.586,287.043 359,287.5C 361.943,285.948 364.777,284.281 367.5,282.5C 366.833,284.5 366.167,286.5 365.5,288.5C 368.505,288.75 370.338,287.417 371,284.5C 371.278,285.416 371.778,286.082 372.5,286.5C 370.082,289.547 367.082,291.88 363.5,293.5C 363.36,291.876 364.027,290.71 365.5,290C 362.183,289.502 358.85,289.335 355.5,289.5C 355.5,283.5 355.5,277.5 355.5,271.5 Z"/></g>
<g><path style="opacity:1" fill="#415582" d="M 415.5,251.5 C 415.5,251.833 415.5,252.167 415.5,252.5C 412.341,263.043 411.841,273.709 414,284.5C 414.408,286.41 415.575,287.41 417.5,287.5C 419.97,286.763 422.304,285.763 424.5,284.5C 427.063,284.269 428.73,282.935 429.5,280.5C 430.906,280.027 431.573,279.027 431.5,277.5C 433.903,277.607 435.736,276.607 437,274.5C 437.333,274.833 437.667,275.167 438,275.5C 436.596,277.832 435.762,280.499 435.5,283.5C 429.661,291.92 421.661,295.754 411.5,295C 408.979,293.442 407.312,291.275 406.5,288.5C 406.5,286.5 406.5,284.5 406.5,282.5C 407.833,282.5 409.167,282.5 410.5,282.5C 409.961,271.379 410.795,260.379 413,249.5C 413.417,250.756 414.25,251.423 415.5,251.5 Z"/></g>
<g><path style="opacity:0.937" fill="#7784a4" d="M 429.5,280.5 C 428.73,282.935 427.063,284.269 424.5,284.5C 425.585,282.413 427.251,281.08 429.5,280.5 Z"/></g>
<g><path style="opacity:0.788" fill="#99a4b9" d="M 431.5,277.5 C 431.573,279.027 430.906,280.027 429.5,280.5C 429.427,278.973 430.094,277.973 431.5,277.5 Z"/></g>
<g><path style="opacity:1" fill="#30497e" d="M 281.5,286.5 C 279.5,286.5 277.5,286.5 275.5,286.5C 274.554,289.83 272.22,291.496 268.5,291.5C 265.946,288.697 263.946,289.03 262.5,292.5C 263.025,293.192 263.692,293.692 264.5,294C 261.469,294.495 258.469,294.329 255.5,293.5C 252.872,292.745 252.205,291.245 253.5,289C 255.35,289.595 257.35,290.095 259.5,290.5C 259.5,289.5 259.5,288.5 259.5,287.5C 261.903,287.448 264.236,287.781 266.5,288.5C 268.117,289.038 269.784,289.371 271.5,289.5C 271.5,288.167 271.5,286.833 271.5,285.5C 274.142,285.512 275.475,284.179 275.5,281.5C 277.455,280.677 279.455,280.51 281.5,281C 281.146,282.626 281.146,284.459 281.5,286.5 Z"/></g>
<g><path style="opacity:0.992" fill="#58678a" d="M 473.5,285.5 C 467.255,293.638 459.255,296.638 449.5,294.5C 450.833,294.5 452.167,294.5 453.5,294.5C 456.436,293.594 459.436,292.928 462.5,292.5C 462.5,291.5 462.5,290.5 462.5,289.5C 466.146,288.314 469.813,286.98 473.5,285.5 Z"/></g>
<g><path style="opacity:1" fill="#31497d" d="M 481.5,276.5 C 479.797,275.34 479.131,276.007 479.5,278.5C 478.5,278.5 477.5,278.5 476.5,278.5C 475.199,280.672 474.199,283.005 473.5,285.5C 469.813,286.98 466.146,288.314 462.5,289.5C 462.5,290.5 462.5,291.5 462.5,292.5C 459.436,292.928 456.436,293.594 453.5,294.5C 453.423,293.25 452.756,292.417 451.5,292C 452.973,291.29 453.64,290.124 453.5,288.5C 452.167,288.5 450.833,288.5 449.5,288.5C 449.167,286.5 448.833,284.5 448.5,282.5C 450.216,282.629 451.883,282.962 453.5,283.5C 453.414,284.496 453.748,285.329 454.5,286C 459.519,286.498 464.519,286.332 469.5,285.5C 469.646,281.797 471.48,279.13 475,277.5C 475.608,273.784 477.774,271.784 481.5,271.5C 481.5,273.167 481.5,274.833 481.5,276.5 Z"/></g>
<g><path style="opacity:0.996" fill="#627191" d="M 347.5,288.5 C 349.908,289.795 352.075,291.461 354,293.5C 356.099,294.287 358.266,294.62 360.5,294.5C 354.394,296.617 350.061,294.617 347.5,288.5 Z"/></g>
<g><path style="opacity:1" fill="#56668d" d="M 185.5,231.5 C 183.9,243.98 182.233,256.313 180.5,268.5C 180.19,262.242 180.524,256.076 181.5,250C 179.892,249.342 178.725,249.842 178,251.5C 176.989,250.663 175.822,250.33 174.5,250.5C 174.705,258.857 174.372,267.19 173.5,275.5C 173.947,280.862 174.613,286.195 175.5,291.5C 176.396,290.494 177.062,290.494 177.5,291.5C 176.709,296.318 177.709,300.818 180.5,305C 180.257,305.902 179.923,306.735 179.5,307.5C 176.643,304.454 174.81,300.787 174,296.5C 171.182,278.357 171.348,260.357 174.5,242.5C 174.833,242.5 175.167,242.5 175.5,242.5C 175.5,244.5 175.5,246.5 175.5,248.5C 176.552,248.649 177.552,248.483 178.5,248C 181.739,243.959 183.406,239.292 183.5,234C 183.684,232.624 184.351,231.791 185.5,231.5 Z"/></g>
<g><path style="opacity:1" fill="#53658b" d="M 252.5,287.5 C 251.972,288.721 251.305,289.887 250.5,291C 244.5,291.333 238.5,291.667 232.5,292C 234.612,294.316 237.278,295.65 240.5,296C 245.833,296.667 251.167,296.667 256.5,296C 255.748,295.329 255.414,294.496 255.5,293.5C 258.469,294.329 261.469,294.495 264.5,294C 263.692,293.692 263.025,293.192 262.5,292.5C 263.946,289.03 265.946,288.697 268.5,291.5C 272.22,291.496 274.554,289.83 275.5,286.5C 277.5,286.5 279.5,286.5 281.5,286.5C 268.223,296.793 253.223,300.293 236.5,297C 232.793,296.064 229.626,294.231 227,291.5C 226.019,288.443 227.019,286.443 230,285.5C 237.223,289.893 244.723,290.56 252.5,287.5 Z"/></g>
<g><path style="opacity:1" fill="#566689" d="M 287.5,289.5 C 288.5,289.5 289.5,289.5 290.5,289.5C 291.067,291.03 291.733,292.53 292.5,294C 296.026,294.969 299.026,294.135 301.5,291.5C 303.743,290.526 306.076,290.192 308.5,290.5C 303.93,296.117 298.263,297.617 291.5,295C 289.561,293.568 288.228,291.735 287.5,289.5 Z"/></g>
<g><path style="opacity:1" fill="#495b85" d="M 180.5,287.5 C 181.481,299.777 187.648,308.443 199,313.5C 199.49,314.793 199.657,316.127 199.5,317.5C 193.101,317.969 187.435,316.136 182.5,312C 180.859,310.871 179.859,309.371 179.5,307.5C 181.849,307.542 183.182,306.375 183.5,304C 181.085,298.769 180.085,293.269 180.5,287.5 Z"/></g>
</svg>
