<?xml version="1.0" encoding="utf-8"?>
<!-- Generator: Adobe Illustrator 27.7.0, SVG Export Plug-In . SVG Version: 6.00 Build 0)  -->
<svg version="1.1" id="Vrstva_1" xmlns="http://www.w3.org/2000/svg" xmlns:xlink="http://www.w3.org/1999/xlink" x="0px" y="0px"
	 width="199.5px" height="53.3px" viewBox="0 0 199.5 53.3" enable-background="new 0 0 199.5 53.3" xml:space="preserve">
<g>
	<path fill="#1E4761" d="M35,10.5c2.6-0.4,3-0.1,3,0.2v0c0,0,0,0.1,0,0.1c-0.1,0.3-0.4,0.3-0.4,0.3s-4.3-0.8-17.9,10.4
		c2,2.8,3.6,7.1,2.3,7.8c-1.3,0.7-2.9-3.2-5.4-4c-2.5-0.7-2.5-0.9-8.9,4.5c-1.5,1.1-2.4,1.5-3,1.5h0c-1.4,0,0.3-3.4,2.2-4.7
		c2.5-1.9,5.9-5.1,6.1-6.2c0.2-1.2-2.2-2.4-1.6-6.1c0.1-0.4,0.1-0.4,0.3-0.9c0.9-1.9,1.3,0.3,2.6,2c1.4,1.9,2.4,2.3,2.4,2.3
		S27,11.7,35,10.5"/>
	<path fill="#1E4761" d="M11.1,20.2c0,0-18.4-11.1-7.8-19.1C11.2-3.4,13,7.3,13,7.3s4.2-7.9,9.2-4.6c5.6,3.6-1.9,9.9-5.2,12.1
		c-0.4-0.6,4.2-4.8,2-6.4c-2-1.5-3.7,0.6-6,3.2c-1.2,1.4-2.6-7-6.3-5C3.5,8.3,6.4,14,10.5,18.8C11.4,19.8,11.1,20.2,11.1,20.2"/>
	<path fill="#D80000" d="M11.2,20.2c0,0-17-13-7-19.3c8.1-3.9,9.7,7.1,9.7,7.1s4.2-8.6,8.9-5c5.2,4-2.2,10-5.6,12
		c-0.4-0.6,4.7-5.4,2.7-7.2c-1.9-1.7-5.1,1.4-6.5,3.3c-1.1,1.5-2.1-7-5.9-5.2C4.1,7.4,7,13.6,10.7,18.7
		C11.4,19.8,11.2,20.2,11.2,20.2"/>
	<path fill="#1E4761" d="M127,0.6H39.2v2.2H127V0.6z M61.9,24.5c0,2.3,2,2.3,2,2.3h6.8v-2.8c-1,0-2.2-1.2-2.2-1.2V12.6
		c0-2.6-2.4-2.7-2.4-2.7H39.9v3c2.5,0,2.3,1.8,2.3,1.8v11.8h7.6V14.1c0-0.2,0.2-1.2,1.3-1.2c1.2,0,1.2,1.2,1.2,1.2v12.5h6.9V14.2
		c0,0-0.2-1.4,1.3-1.4c1.5,0,1.4,1.4,1.4,1.4V24.5z M135.7,0.6h-5.8v7.9h5.8L135.7,0.6z M39.2,30.5h50v-2.2h-50V30.5z M162.4,26.5
		h11.1c2.8,0,2.4-2.5,2.4-2.5V20h-6.5v1.6c0,0-0.1,1.2-1.2,1.2c-1.2,0-1.2-1.1-1.2-1.1v-2.9h8.9v-5.4c0-3.8-3.4-3.5-3.4-3.5h-8
		c-4.2,0-3.7,3-3.7,3v11.8C160.8,26.7,162.4,26.5,162.4,26.5z M168.2,13.6c0.8,0,1.4,0.5,1.4,1.1c0,0.6-0.6,1.1-1.4,1.1
		c-0.8,0-1.4-0.5-1.4-1.1C166.8,14,167.4,13.6,168.2,13.6z M153.3,26.4h6.5v-3.1c-1.3-0.3-1.4-1.7-1.4-1.7V0.6h-6.9v24.2
		C151.6,26.4,153.3,26.4,153.3,26.4z M127.3,13.3c0-3.5-3.6-3.4-3.6-3.4h-14.4v4l1.6,1.1v11.6h6.6V14.8c0,0-0.3-1.6,1.3-1.6
		c1.6,0,1.5,1.6,1.5,1.6v10.5c0,1.2,1.2,1.2,1.2,1.2h7.1v-3.1c-1.4,0-1.3-1-1.3-1V13.3z M149,12.3h0.9V9.6h-2.4V6.2
		c0-1.8,1-1.5,1-1.5h1.8V0.4h-6.4c-3.7,0-3.4,3.4-3.4,3.4v5.7h-2.1v3.1c2.2,0,2.1,1.5,2.1,1.5v19.4h6.9V14
		C147.4,12.1,149,12.3,149,12.3z M91.2,12v12.7c0,0-0.1,1.9,2.3,1.9h6.6v3.5c0,0,0,1.1-1.4,1.1c-1.4,0-1.4-1.2-1.4-1.2v-1.3H91v3.8
		c0,0,0.2,1.7,1.9,1.7h11.2c0,0,2.1,0.5,2.1-3V14.7l1.1-1.2V9.8H93.4C93.4,9.8,91.2,9.5,91.2,12z M97.6,22.1v-7.5
		c0-0.5,0.2-1.4,1.5-1.4c1.2,0,1.4,1.2,1.4,1.2V22c0,0-0.2,1.3-1.6,1.3C97.6,23.4,97.6,22.1,97.6,22.1z M135.8,9.8h-6v15.3
		c0,1.4,1.5,1.3,1.5,1.3h7.2v-3.5h-2.7V9.8z M88,22.3v-9.8c0,0,0.1-2.7-2.7-2.7H74.7c0,0-2.7-0.2-2.7,2.7v2.8h6.7
		c0,0-0.2-1.5,1.2-1.5c1.4,0,1.5,1.1,1.5,1.5v1.5h-7.8c0,0-1.8,0-1.8,2.3v5.5c0,0-0.3,2.2,2.6,2.2h15.2v-3
		C89.6,23.7,88,23.8,88,22.3z M81.3,23h-2.6v-3h2.6V23z M107.7,30.5h30.1v-2.2h-30.1V30.5z M199.1,30.2L199.1,30.2l-9.3-13l5.4-7.3
		h-7l-1.8,2.5l-1.8-2.5h-6.4l4.8,7l-9.9,13.4h7.3l6.1-8.4l5.8,8.3H199.1z M193.6,0.6h-33.4v2.2h33.4V0.6z"/>
	<path fill="#1E4761" d="M197.7,0.1c0.3,0,0.6,0.1,0.9,0.2c0.3,0.2,0.5,0.4,0.7,0.7c0.2,0.3,0.2,0.6,0.2,0.9c0,0.3-0.1,0.6-0.2,0.9
		c-0.2,0.3-0.4,0.5-0.7,0.7c-0.3,0.2-0.6,0.2-0.9,0.2c-0.3,0-0.6-0.1-0.9-0.2c-0.3-0.2-0.5-0.4-0.7-0.7c-0.2-0.3-0.2-0.6-0.2-0.9
		c0-0.3,0.1-0.6,0.2-0.9c0.2-0.3,0.4-0.5,0.7-0.7C197.1,0.2,197.4,0.1,197.7,0.1 M197.7,0.4c-0.3,0-0.5,0.1-0.7,0.2
		c-0.2,0.1-0.4,0.3-0.6,0.5c-0.1,0.2-0.2,0.5-0.2,0.7c0,0.3,0.1,0.5,0.2,0.7c0.1,0.2,0.3,0.4,0.6,0.6c0.2,0.1,0.5,0.2,0.7,0.2
		c0.3,0,0.5-0.1,0.7-0.2c0.2-0.1,0.4-0.3,0.5-0.6c0.1-0.2,0.2-0.5,0.2-0.7c0-0.3-0.1-0.5-0.2-0.7c-0.1-0.2-0.3-0.4-0.6-0.5
		C198.2,0.4,197.9,0.4,197.7,0.4z M196.9,2.8V0.9h0.7c0.2,0,0.4,0,0.5,0.1c0.1,0,0.2,0.1,0.2,0.2c0.1,0.1,0.1,0.2,0.1,0.3
		c0,0.1-0.1,0.3-0.2,0.4C198.1,1.9,198,2,197.8,2c0.1,0,0.1,0.1,0.2,0.1c0.1,0.1,0.2,0.2,0.3,0.4l0.2,0.4h-0.4L198,2.5
		c-0.1-0.2-0.2-0.4-0.3-0.4c-0.1,0-0.1-0.1-0.3-0.1h-0.2v0.8H196.9z M197.2,1.8h0.4c0.2,0,0.3,0,0.4-0.1c0.1-0.1,0.1-0.1,0.1-0.2
		c0-0.1,0-0.1,0-0.2c0,0-0.1-0.1-0.1-0.1c-0.1,0-0.2,0-0.3,0h-0.4V1.8z"/>
	<path fill="#34A42E" d="M156.7,42.3c-2.6,0.5-5.2,0.5-7.7-0.9v-8.1c2.6,1.4,5.2,1.4,7.7,0.9V42.3z"/>
	<path fill="#FFFFFF" d="M164.3,40.5c-2.6,0.5-5.2,1.4-7.7,1.8v-8.1c2.6-0.5,5.2-1.4,7.7-1.8V40.5z"/>
	<path fill="#D80000" d="M171.8,41.4c-2.6-1.4-5.2-1.4-7.7-0.9v-8.1c2.6-0.5,5.2-0.5,7.7,0.9V41.4z"/>
	<polygon fill="#1E4761" points="149.9,38.6 149.9,36.2 150.7,36.2 151.2,37.8 151.7,36.2 152.4,36.2 152.4,38.6 152,38.6 152,36.7 
		151.5,38.6 150.9,38.6 150.4,36.7 150.4,38.6 	"/>
	<polygon fill="#1E4761" points="149.9,38.6 149.9,36.2 150.7,36.2 151.2,37.8 151.7,36.2 152.4,36.2 152.4,38.6 152,38.6 152,36.7 
		151.5,38.6 150.9,38.6 150.4,36.7 150.4,38.6 	"/>
	<path fill="#1E4761" d="M153.3,37.4l-0.5-0.1c0-0.2,0.1-0.3,0.3-0.4c0.1-0.1,0.3-0.1,0.6-0.1c0.2,0,0.4,0,0.5,0.1
		c0.1,0.1,0.2,0.1,0.2,0.2c0,0.1,0.1,0.2,0.1,0.4l0,0.5c0,0.2,0,0.3,0,0.3c0,0.1,0,0.2,0.1,0.2h-0.5c0,0,0-0.1,0-0.1c0,0,0,0,0-0.1
		c-0.1,0.1-0.2,0.1-0.3,0.2c-0.1,0-0.2,0.1-0.3,0.1c-0.2,0-0.3,0-0.5-0.1c-0.1-0.1-0.2-0.2-0.2-0.4c0-0.1,0-0.2,0.1-0.3
		c0-0.1,0.1-0.1,0.2-0.2c0.1,0,0.2-0.1,0.4-0.1c0.2,0,0.4-0.1,0.5-0.1v0c0-0.1,0-0.1-0.1-0.2c0,0-0.1-0.1-0.3-0.1
		c-0.1,0-0.2,0-0.2,0C153.4,37.2,153.4,37.3,153.3,37.4 M154,37.7c-0.1,0-0.2,0-0.3,0.1c-0.1,0-0.2,0.1-0.3,0.1
		c-0.1,0-0.1,0.1-0.1,0.2c0,0.1,0,0.1,0.1,0.2c0.1,0,0.1,0.1,0.2,0.1c0.1,0,0.2,0,0.3-0.1c0.1,0,0.1-0.1,0.1-0.2
		C154,38,154,37.9,154,37.7L154,37.7z"/>
	<path fill="#1E4761" d="M153.3,37.4l-0.5-0.1c0-0.2,0.1-0.3,0.3-0.4c0.1-0.1,0.3-0.1,0.6-0.1c0.2,0,0.4,0,0.5,0.1
		c0.1,0.1,0.2,0.1,0.2,0.2c0,0.1,0.1,0.2,0.1,0.4l0,0.5c0,0.2,0,0.3,0,0.3c0,0.1,0,0.2,0.1,0.2h-0.5c0,0,0-0.1,0-0.1c0,0,0,0,0-0.1
		c-0.1,0.1-0.2,0.1-0.3,0.2c-0.1,0-0.2,0.1-0.3,0.1c-0.2,0-0.3,0-0.5-0.1c-0.1-0.1-0.2-0.2-0.2-0.4c0-0.1,0-0.2,0.1-0.3
		c0-0.1,0.1-0.1,0.2-0.2c0.1,0,0.2-0.1,0.4-0.1c0.2,0,0.4-0.1,0.5-0.1v0c0-0.1,0-0.1-0.1-0.2c0,0-0.1-0.1-0.3-0.1
		c-0.1,0-0.2,0-0.2,0C153.4,37.2,153.4,37.3,153.3,37.4 M154,37.7c-0.1,0-0.2,0-0.3,0.1c-0.1,0-0.2,0.1-0.3,0.1
		c-0.1,0-0.1,0.1-0.1,0.2c0,0.1,0,0.1,0.1,0.2c0.1,0,0.1,0.1,0.2,0.1c0.1,0,0.2,0,0.3-0.1c0.1,0,0.1-0.1,0.1-0.2
		C154,38,154,37.9,154,37.7L154,37.7z"/>
	<path fill="#1E4761" d="M156.7,38.6h-0.5v-0.3c-0.1,0.1-0.2,0.2-0.3,0.2c-0.1,0-0.2,0.1-0.3,0.1c-0.2,0-0.4-0.1-0.6-0.2
		c-0.2-0.2-0.2-0.4-0.2-0.7c0-0.3,0.1-0.5,0.2-0.7c0.1-0.2,0.3-0.2,0.6-0.2c0.2,0,0.4,0.1,0.5,0.2v-0.9h0.5V38.6z M155.4,37.7
		c0,0.2,0,0.3,0.1,0.4c0.1,0.1,0.2,0.2,0.3,0.2c0.1,0,0.2,0,0.3-0.1c0.1-0.1,0.1-0.2,0.1-0.4c0-0.2,0-0.3-0.1-0.4
		c-0.1-0.1-0.2-0.1-0.3-0.1c-0.1,0-0.2,0-0.3,0.1C155.4,37.4,155.4,37.5,155.4,37.7z"/>
	<path fill="#1E4761" d="M156.7,38.6h-0.5v-0.3c-0.1,0.1-0.2,0.2-0.3,0.2c-0.1,0-0.2,0.1-0.3,0.1c-0.2,0-0.4-0.1-0.6-0.2
		c-0.2-0.2-0.2-0.4-0.2-0.7c0-0.3,0.1-0.5,0.2-0.7c0.1-0.2,0.3-0.2,0.6-0.2c0.2,0,0.4,0.1,0.5,0.2v-0.9h0.5V38.6z M155.4,37.7
		c0,0.2,0,0.3,0.1,0.4c0.1,0.1,0.2,0.2,0.3,0.2c0.1,0,0.2,0,0.3-0.1c0.1-0.1,0.1-0.2,0.1-0.4c0-0.2,0-0.3-0.1-0.4
		c-0.1-0.1-0.2-0.1-0.3-0.1c-0.1,0-0.2,0-0.3,0.1C155.4,37.4,155.4,37.5,155.4,37.7z"/>
	<path fill="#1E4761" d="M158.3,38l0.5,0.1c-0.1,0.2-0.2,0.3-0.3,0.4c-0.1,0.1-0.3,0.1-0.5,0.1c-0.3,0-0.6-0.1-0.7-0.3
		c-0.1-0.2-0.2-0.4-0.2-0.6c0-0.3,0.1-0.5,0.2-0.7c0.2-0.2,0.4-0.2,0.6-0.2c0.3,0,0.5,0.1,0.7,0.3c0.2,0.2,0.2,0.4,0.2,0.8h-1.2
		c0,0.1,0,0.2,0.1,0.3c0.1,0.1,0.2,0.1,0.3,0.1c0.1,0,0.1,0,0.2-0.1C158.2,38.2,158.3,38.1,158.3,38 M158.3,37.6
		c0-0.1,0-0.2-0.1-0.3c-0.1-0.1-0.2-0.1-0.3-0.1c-0.1,0-0.2,0-0.3,0.1c-0.1,0.1-0.1,0.2-0.1,0.3H158.3z"/>
	<path fill="#1E4761" d="M158.3,38l0.5,0.1c-0.1,0.2-0.2,0.3-0.3,0.4c-0.1,0.1-0.3,0.1-0.5,0.1c-0.3,0-0.6-0.1-0.7-0.3
		c-0.1-0.2-0.2-0.4-0.2-0.6c0-0.3,0.1-0.5,0.2-0.7c0.2-0.2,0.4-0.2,0.6-0.2c0.3,0,0.5,0.1,0.7,0.3c0.2,0.2,0.2,0.4,0.2,0.8h-1.2
		c0,0.1,0,0.2,0.1,0.3c0.1,0.1,0.2,0.1,0.3,0.1c0.1,0,0.1,0,0.2-0.1C158.2,38.2,158.3,38.1,158.3,38 M158.3,37.6
		c0-0.1,0-0.2-0.1-0.3c-0.1-0.1-0.2-0.1-0.3-0.1c-0.1,0-0.2,0-0.3,0.1c-0.1,0.1-0.1,0.2-0.1,0.3H158.3z"/>
	<path fill="#1E4761" d="M160.2,36.2h0.5v0.4h-0.5V36.2z M160.2,36.8h0.5v1.7h-0.5V36.8z"/>
	<path fill="#1E4761" d="M162.9,38.6h-0.5v-0.9c0-0.2,0-0.3,0-0.4c0-0.1-0.1-0.1-0.1-0.1c0,0-0.1,0-0.2,0c-0.1,0-0.2,0-0.2,0.1
		c-0.1,0-0.1,0.1-0.1,0.2c0,0.1,0,0.2,0,0.4v0.8h-0.5v-1.7h0.5v0.3c0.2-0.2,0.4-0.3,0.6-0.3c0.1,0,0.2,0,0.3,0.1
		c0.1,0,0.2,0.1,0.2,0.1c0,0.1,0.1,0.1,0.1,0.2c0,0.1,0,0.2,0,0.3V38.6z"/>
	<path fill="#1E4761" d="M162.9,38.6h-0.5v-0.9c0-0.2,0-0.3,0-0.4c0-0.1-0.1-0.1-0.1-0.1c0,0-0.1,0-0.2,0c-0.1,0-0.2,0-0.2,0.1
		c-0.1,0-0.1,0.1-0.1,0.2c0,0.1,0,0.2,0,0.4v0.8h-0.5v-1.7h0.5v0.3c0.2-0.2,0.4-0.3,0.6-0.3c0.1,0,0.2,0,0.3,0.1
		c0.1,0,0.2,0.1,0.2,0.1c0,0.1,0.1,0.1,0.1,0.2c0,0.1,0,0.2,0,0.3V38.6z"/>
	<rect x="164.4" y="36.2" fill="#1E4761" width="0.5" height="2.4"/>
	<path fill="#1E4761" d="M166.3,36.9v0.4H166v0.7c0,0.1,0,0.2,0,0.2c0,0,0,0,0,0.1c0,0,0.1,0,0.1,0c0,0,0.1,0,0.2,0l0,0.4
		c-0.1,0-0.2,0.1-0.4,0.1c-0.1,0-0.2,0-0.2,0c-0.1,0-0.1-0.1-0.2-0.1c0,0-0.1-0.1-0.1-0.2c0-0.1,0-0.2,0-0.3v-0.8h-0.2v-0.4h0.2
		v-0.3l0.5-0.3v0.6H166.3z"/>
	<path fill="#1E4761" d="M166.3,36.9v0.4H166v0.7c0,0.1,0,0.2,0,0.2c0,0,0,0,0,0.1c0,0,0.1,0,0.1,0c0,0,0.1,0,0.2,0l0,0.4
		c-0.1,0-0.2,0.1-0.4,0.1c-0.1,0-0.2,0-0.2,0c-0.1,0-0.1-0.1-0.2-0.1c0,0-0.1-0.1-0.1-0.2c0-0.1,0-0.2,0-0.3v-0.8h-0.2v-0.4h0.2
		v-0.3l0.5-0.3v0.6H166.3z"/>
	<path fill="#1E4761" d="M167,37.4l-0.5-0.1c0.1-0.2,0.1-0.3,0.3-0.4c0.1-0.1,0.3-0.1,0.6-0.1c0.2,0,0.4,0,0.5,0.1
		c0.1,0.1,0.2,0.1,0.2,0.2c0,0.1,0.1,0.2,0.1,0.4l0,0.5c0,0.2,0,0.3,0,0.3c0,0.1,0,0.2,0.1,0.2h-0.5c0,0,0-0.1,0-0.1c0,0,0,0,0-0.1
		c-0.1,0.1-0.2,0.1-0.3,0.2c-0.1,0-0.2,0.1-0.3,0.1c-0.2,0-0.3,0-0.5-0.1c-0.1-0.1-0.2-0.2-0.2-0.4c0-0.1,0-0.2,0.1-0.3
		c0.1-0.1,0.1-0.1,0.2-0.2c0.1,0,0.2-0.1,0.4-0.1c0.2,0,0.4-0.1,0.5-0.1v0c0-0.1,0-0.1-0.1-0.2c0,0-0.1-0.1-0.3-0.1
		c-0.1,0-0.2,0-0.2,0C167.1,37.2,167.1,37.3,167,37.4 M167.7,37.7c-0.1,0-0.2,0-0.3,0.1c-0.1,0-0.2,0.1-0.3,0.1
		c-0.1,0-0.1,0.1-0.1,0.2c0,0.1,0,0.1,0.1,0.2c0.1,0,0.1,0.1,0.2,0.1c0.1,0,0.2,0,0.3-0.1c0.1,0,0.1-0.1,0.1-0.2
		C167.7,38,167.7,37.9,167.7,37.7L167.7,37.7z"/>
	<rect x="168.7" y="36.2" fill="#1E4761" width="0.5" height="2.4"/>
	<path fill="#1E4761" d="M169.4,36.9h0.5l0.5,1.2l0.4-1.2h0.5l-0.7,1.7l-0.1,0.3c0,0.1-0.1,0.2-0.1,0.2c0,0.1-0.1,0.1-0.1,0.1
		c0,0-0.1,0.1-0.2,0.1c-0.1,0-0.2,0-0.3,0c-0.1,0-0.2,0-0.3,0l0-0.4c0.1,0,0.1,0,0.2,0c0.1,0,0.2,0,0.3-0.1c0.1-0.1,0.1-0.1,0.1-0.2
		L169.4,36.9z"/>
	<path fill="#1E4761" d="M169.4,36.9h0.5l0.5,1.2l0.4-1.2h0.5l-0.7,1.7l-0.1,0.3c0,0.1-0.1,0.2-0.1,0.2c0,0.1-0.1,0.1-0.1,0.1
		c0,0-0.1,0.1-0.2,0.1c-0.1,0-0.2,0-0.3,0c-0.1,0-0.2,0-0.3,0l0-0.4c0.1,0,0.1,0,0.2,0c0.1,0,0.2,0,0.3-0.1c0.1-0.1,0.1-0.1,0.1-0.2
		L169.4,36.9z"/>
	<rect x="150.1" y="28.3" fill="#1E4761" width="21.1" height="2.2"/>
	<rect x="39.8" y="48.2" fill="#1E4761" width="0.7" height="5"/>
	<polygon fill="#1E4761" points="44,48.7 42.5,48.7 42.5,48.2 46.2,48.2 46.2,48.7 44.6,48.7 44.6,53.2 44,53.2 	"/>
	<path fill="#1E4761" d="M50.1,51.1L50.1,51.1l-0.5-1.4c-0.1-0.3-0.2-0.6-0.3-0.9h0c-0.1,0.3-0.1,0.6-0.2,0.9l-0.5,1.5H50.1z
		 M48.5,51.6L48,53.2h-0.7l1.7-5h0.8l1.7,5h-0.7l-0.5-1.6H48.5z"/>
	<polygon fill="#1E4761" points="53.7,48.2 54.3,48.2 54.3,52.6 56.5,52.6 56.5,53.2 53.7,53.2 	"/>
	<path fill="#1E4761" d="M58.6,52.4c0.3,0.2,0.7,0.3,1.2,0.3c0.7,0,1-0.3,1-0.9c0-0.5-0.3-0.7-0.9-1c-0.8-0.3-1.3-0.7-1.3-1.4
		c0-0.8,0.6-1.4,1.6-1.4c0.5,0,0.9,0.1,1.1,0.2l-0.2,0.5c-0.2-0.1-0.5-0.2-0.9-0.2c-0.7,0-0.9,0.4-0.9,0.8c0,0.5,0.3,0.7,1,1
		c0.8,0.3,1.3,0.7,1.3,1.5c0,0.8-0.6,1.5-1.7,1.5c-0.5,0-1-0.1-1.3-0.3L58.6,52.4z"/>
	<path fill="#1E4761" d="M63.9,48.2h0.6v2.4h0c0.1-0.2,0.3-0.4,0.4-0.5l1.5-1.9h0.8l-1.8,2.1l2,2.9h-0.8L65,50.7l-0.5,0.6v1.9h-0.6
		V48.2z"/>
	<path fill="#1E4761" d="M71.8,47L71.8,47l-1,0.9h-0.5l0.7-0.9H71.8z M72,50.8H70v1.8h2.2v0.5h-2.8v-5h2.7v0.5H70v1.6H72V50.8z"/>
	<path fill="#1E4761" d="M81.8,51c0-0.7-0.1-1.5-0.1-2.2h0c-0.2,0.6-0.4,1.2-0.6,1.9l-0.9,2.4h-0.5l-0.8-2.4c-0.2-0.7-0.4-1.4-0.6-2
		h0c0,0.6-0.1,1.5-0.1,2.2l-0.1,2.2h-0.6l0.3-5h0.8l0.9,2.4c0.2,0.6,0.4,1.2,0.5,1.7h0c0.1-0.5,0.3-1.1,0.5-1.7l0.9-2.4h0.8l0.3,5
		h-0.6L81.8,51z"/>
	<path fill="#1E4761" d="M87.5,51.1L87.5,51.1L87,49.7c-0.1-0.3-0.2-0.6-0.3-0.9h0c-0.1,0.3-0.1,0.6-0.2,0.9L86,51.1H87.5z
		 M85.9,51.6l-0.5,1.6h-0.7l1.7-5h0.8l1.7,5h-0.7l-0.5-1.6H85.9z"/>
	<polygon fill="#1E4761" points="91.5,48.7 89.9,48.7 89.9,48.2 93.7,48.2 93.7,48.7 92.1,48.7 92.1,53.2 91.5,53.2 	"/>
	<path fill="#1E4761" d="M96.3,50.5L96.3,50.5H97c0.7,0,1.1-0.4,1.1-1c0-0.6-0.5-0.9-1.2-0.9c-0.3,0-0.5,0-0.6,0.1V50.5z M95.7,48.2
		c0.3-0.1,0.8-0.1,1.2-0.1c0.7,0,1.1,0.1,1.5,0.4c0.2,0.2,0.4,0.6,0.4,1c0,0.7-0.4,1.1-0.9,1.3v0c0.4,0.1,0.6,0.5,0.7,1
		c0.2,0.7,0.3,1.2,0.4,1.4h-0.7C98.2,53,98.1,52.6,98,52c-0.1-0.7-0.4-1-1-1h-0.6v2.2h-0.6V48.2z"/>
	<path fill="#1E4761" d="M103.7,51.1L103.7,51.1l-0.5-1.4c-0.1-0.3-0.2-0.6-0.3-0.9h0c-0.1,0.3-0.1,0.6-0.2,0.9l-0.5,1.5H103.7z
		 M102,51.6l-0.5,1.6h-0.7l1.7-5h0.8l1.7,5h-0.7l-0.5-1.6H102z"/>
	<path fill="#1E4761" d="M110.7,53c-0.2,0.1-0.7,0.2-1.3,0.2c-1.4,0-2.5-0.9-2.5-2.5c0-1.6,1.1-2.6,2.6-2.6c0.6,0,1,0.1,1.2,0.2
		l-0.2,0.5c-0.2-0.1-0.6-0.2-1-0.2c-1.2,0-2,0.8-2,2.1c0,1.2,0.7,2,1.9,2c0.4,0,0.8-0.1,1.1-0.2L110.7,53z"/>
	<polygon fill="#1E4761" points="115.5,50.8 113.6,50.8 113.6,52.6 115.8,52.6 115.8,53.2 112.9,53.2 112.9,48.2 115.7,48.2 
		115.7,48.7 113.6,48.7 113.6,50.3 115.5,50.3 	"/>
	<path fill="#1E4761" d="M121.2,53.2v-5h0.7l1.6,2.5c0.4,0.6,0.7,1.1,0.9,1.6l0,0c-0.1-0.7-0.1-1.3-0.1-2.1v-2.1h0.6v5h-0.7
		l-1.6-2.5c-0.4-0.6-0.7-1.1-0.9-1.7l0,0c0,0.6,0,1.2,0,2.1v2.1H121.2z"/>
	<polygon fill="#1E4761" points="130.1,50.8 128.2,50.8 128.2,52.6 130.4,52.6 130.4,53.2 127.5,53.2 127.5,48.2 130.3,48.2 
		130.3,48.7 128.2,48.7 128.2,50.3 130.1,50.3 	"/>
	<path fill="#1E4761" d="M133.7,48.2h0.7v3.4c0,1.3-0.7,1.7-1.5,1.7c-0.2,0-0.5-0.1-0.7-0.1l0.1-0.5c0.1,0.1,0.3,0.1,0.6,0.1
		c0.6,0,0.9-0.3,0.9-1.2V48.2z"/>
	<path fill="#1E4761" d="M138,53.2l-1.6-5h0.7l0.8,2.5c0.2,0.7,0.4,1.3,0.5,1.9h0c0.1-0.6,0.3-1.2,0.6-1.9l0.8-2.5h0.7l-1.8,5H138z"
		/>
	<path fill="#1E4761" d="M143.7,53.2v-2.1l-1.6-2.9h0.7l0.7,1.4c0.2,0.4,0.3,0.7,0.5,1h0c0.1-0.3,0.3-0.7,0.5-1l0.7-1.4h0.7
		l-1.7,2.9v2.1H143.7z"/>
	<path fill="#1E4761" d="M149.2,47.9L149.2,47.9l-0.8-0.9h0.5l0.5,0.6h0l0.5-0.6h0.5l-0.8,0.9H149.2z M148,52.4
		c0.3,0.2,0.7,0.3,1.2,0.3c0.7,0,1-0.3,1-0.9c0-0.5-0.3-0.7-0.9-1c-0.8-0.3-1.3-0.7-1.3-1.4c0-0.8,0.6-1.4,1.6-1.4
		c0.5,0,0.9,0.1,1.1,0.2l-0.2,0.5c-0.2-0.1-0.5-0.2-0.9-0.2c-0.7,0-0.9,0.4-0.9,0.8c0,0.5,0.3,0.7,1,1c0.8,0.3,1.3,0.7,1.3,1.5
		c0,0.8-0.6,1.5-1.7,1.5c-0.5,0-1-0.1-1.3-0.3L148,52.4z"/>
	<path fill="#1E4761" d="M154.4,47.9L154.4,47.9l-0.8-0.9h0.5l0.5,0.6h0l0.5-0.6h0.5l-0.8,0.9H154.4z M153.2,52.4
		c0.3,0.2,0.7,0.3,1.2,0.3c0.7,0,1-0.3,1-0.9c0-0.5-0.3-0.7-0.9-1c-0.8-0.3-1.3-0.7-1.3-1.4c0-0.8,0.6-1.4,1.6-1.4
		c0.5,0,0.9,0.1,1.1,0.2l-0.2,0.5c-0.2-0.1-0.5-0.2-0.9-0.2c-0.7,0-0.9,0.4-0.9,0.8c0,0.5,0.3,0.7,1,1c0.8,0.3,1.3,0.7,1.3,1.5
		c0,0.8-0.6,1.5-1.7,1.5c-0.5,0-1-0.1-1.3-0.3L153.2,52.4z"/>
	<path fill="#1E4761" d="M159,48.2L159,48.2v5h-0.7v-5H159z M159.8,47l-1,0.9h-0.5L159,47H159.8z"/>
	<path fill="#1E4761" d="M164.7,48.2h0.6v2.4h0c0.1-0.2,0.3-0.4,0.4-0.5l1.5-1.9h0.8l-1.8,2.1l2,2.9h-0.8l-1.6-2.5l-0.5,0.6v1.9
		h-0.6V48.2z"/>
	<path fill="#1E4761" d="M171.4,53.2l-1.6-5h0.7l0.8,2.5c0.2,0.7,0.4,1.3,0.5,1.9h0c0.1-0.6,0.3-1.2,0.6-1.9l0.8-2.5h0.7l-1.8,5
		H171.4z"/>
	<path fill="#1E4761" d="M177.8,51.1L177.8,51.1l-0.5-1.4c-0.1-0.3-0.2-0.6-0.3-0.9h0c-0.1,0.3-0.1,0.6-0.2,0.9l-0.5,1.5H177.8z
		 M176.2,51.6l-0.5,1.6H175l1.7-5h0.8l1.7,5h-0.7l-0.5-1.6H176.2z"/>
	<polygon fill="#1E4761" points="181.4,48.2 182,48.2 182,52.6 184.2,52.6 184.2,53.2 181.4,53.2 	"/>
	<rect x="186.4" y="48.2" fill="#1E4761" width="0.7" height="5"/>
	<polygon fill="#1E4761" points="190.6,48.7 189.1,48.7 189.1,48.2 192.8,48.2 192.8,48.7 191.3,48.7 191.3,53.2 190.6,53.2 	"/>
	<path fill="#1E4761" d="M196.2,53.2v-2.1l-1.6-2.9h0.7l0.7,1.4c0.2,0.4,0.3,0.7,0.5,1h0c0.1-0.3,0.3-0.7,0.5-1l0.7-1.4h0.7
		l-1.7,2.9v2.1H196.2z"/>
</g>
</svg>
